<?xml version="1.0" encoding="UTF-8"?>
<svg id="Layer_1" xmlns="http://www.w3.org/2000/svg" xmlns:xlink="http://www.w3.org/1999/xlink" version="1.1" viewBox="0 0 176 74">
  <!-- Generator: Adobe Illustrator 29.6.1, SVG Export Plug-In . SVG Version: 2.1.1 Build 9)  -->
  <defs>
    <style>
      .st0, .st1 {
        fill: none;
      }

      .st2 {
        fill: #f8f8f7;
      }

      .st3 {
        fill: #f9f9f8;
      }

      .st4 {
        fill: #f7f6f6;
      }

      .st5 {
        fill: #f9f8f8;
      }

      .st6 {
        fill: #faf9f9;
      }

      .st7 {
        fill: #797879;
      }

      .st8 {
        fill: #f7f7f6;
      }

      .st9 {
        fill: #fff;
      }

      .st10 {
        fill: #f9f9f9;
      }

      .st11 {
        fill: #757475;
      }

      .st12 {
        fill: #777677;
      }

      .st13 {
        fill: #f7f7f7;
      }

      .st14 {
        fill: #8b8b8b;
      }

      .st15 {
        fill: #f6f5f4;
      }

      .st1 {
        stroke: #707070;
      }

      .st16 {
        display: none;
      }

      .st17 {
        fill: #f8f7f7;
      }

      .st18 {
        fill: #951931;
      }

      .st19 {
        clip-path: url(#clippath);
      }

      .st20 {
        fill: #767576;
      }
    </style>
    <clipPath id="clippath">
      <rect class="st0" x="11.1" y="10.3" width="156" height="50.1"/>
    </clipPath>
  </defs>
  <g id="Layer_11" data-name="Layer_1" class="st16">
    <path class="st10" d="M-1815.7,6.3c.5.8-.2,1.3-.5,1.6-1.3,1.1-.9,2.5-.6,3.6.6,2.2,1.1,4.4,1.9,6.5.9,2.4,1.6,4.8,2.5,7.2.8,2.2,1.5,4.3,2.2,6.5,0,.1,0,.2,0,.4,1.9,4.2,3.1,8.7,4.9,13,.5,1.2.8,2.5,1.3,3.8.6,1.6,1.3,3.2,1.9,4.9.7,1.9,1.5,3.8,2.1,5.8.8,2.5,3.1,4.3,5.8,4.3s1.3.2,1.3,1.2-.4,1.2-1.4,1.2h-17.6c-1,0-1.2-.3-1.2-1.2s.3-1.3,1.2-1.2c1.1,0,2.2,0,3.2,0,1.5,0,1.8-.7,1.2-2-.9-2.2-1.5-4.5-2.5-6.7-1.2-2.7-1.5-5.6-3-8.2,0-.2,0-.4-.2-.6q-.2-1.7-1.9-1.7h-19.5c-.7,2.6-1.8,5-2.6,7.5-.8,2.5-1.5,5.1-2.5,7.5-.3.8-.3,1.8,0,2.7.5,1.6,2,1.3,3.2,1.5s2.4,0,3.6,0c1,0,.9.6.9,1.2s0,1.2-1,1.2h-16.4v174.3c1.7-.1,3.3.4,4.9-.3.7-.3,1-.7.9-1.4,0-2.8.4-5.6.9-8.3.6-3.1.8-6.2,1.2-9.3.2-1.7.5-3.5,1-5.3.3-1,.3-2,.4-3,0-1.7.5-3.3.6-4.9,0-1.4.2-2.9.7-4.3.3-.9.3-2,.3-2.9,0-1.6.7-3.1.5-4.7,0-1.1.4-2.1.6-3.1.4-1.8.2-3.7,0-5.5,0-.6-.9-.8-1.5-.8h-4.1c-.8,0-1.5-.2-1.3-1.1.2-.7,0-1.8,1.3-1.8,7.5,0,15-.2,22.4.1,3,.1,6.2.6,8.9,2.3,2.4,1.6,4,3.7,4.8,6.6.5,2,.4,4.1.3,6-.2,1.9-1.2,3.6-2.4,5.2-1.1,1.6-2.7,2.8-4.1,4-1,.9-2.1,2-3.5,2.5-.6.2-1,.5-1.3,1,.6,1.2,1.9,1.4,2.8,2,3.3,2.1,5.8,4.9,6.8,8.6.6,2,.7,4.2.3,6.4-.5,2.9-1.9,5.2-3.4,7.4-.8,1.1-2.1,2-3.2,2.8-1.6,1.2-3.3,2.2-5.3,2.6-1.6.4-3.1.9-4.7,1.1-8,.8-16.1.1-24.2.4-.2,0-.5,0-.8.1v3c.4.3.9.2,1.3.2h745.8c0,.1,0,.3,0,.2h-747.3V7.2c0-.4-.3-.8.2-1.1v56c0,.5-.2,1,.2,1.5.6,0,.9-.4,1.5-.3,1.7.3,2.6-.9,3-2.2,1.2-3.5,2.9-6.7,4.3-10,1-2.6,2.1-5.2,3.3-7.7,1.8-3.9,3.2-8,5-12,.4-1,1-2,1.4-3.1.7-1.8,1.2-3.7,2.2-5.4,1-1.8,1.5-3.8,2.4-5.6.9-1.6,1.4-3.4,2.1-5.1.5-1.4,1.3-2.7,1.7-4.1.2-.8.7-1.7,1.9-1.4.3.1.8.1.7-.5h4.3s-.1,0-.2,0Z"/>
    <path class="st10" d="M-1833.7,211.8c-.3,1.2-.9,2.3-.9,3.4,0,1.9-.7,3.7-.4,5.6,0,.2,0,.4,0,.6-.5,1.5-.7,2.9-.8,4.5,0,1.4-.3,2.7-.4,4.1-.4,2.6-.8,5.2-.7,7.9,0,.8.3,1.9,1.3,1.8,4.2-.1,8.5.4,12.7-1.1,5.6-2,8.3-6,9.1-11,.4-2.3-.2-4.5-.9-6.6-1.1-3.1-3.4-5.3-6.3-6.9-1.7-.9-3.7-1.1-5.5-1.7-2.3-.7-4.6-.6-7.1-.6Z"/>
    <path class="st10" d="M-1833.4,209h1.5c1.3,0,2.6-.1,3.8.1,2,.4,4,.7,6,1.1,1.5.2,2.5-.5,3.7-1.4,3.9-2.9,6-6.6,6.2-11.5,0-1.1-.4-2-.5-3-.2-1.6-1.2-3-2.3-4.1-1.5-1.4-3.4-2-5.5-2.5-2.9-.8-5.7-.6-8.6-.7-.9,0-1.5.5-1.6,1.2-.2,1.8-.7,3.6-.8,5.4,0,2.5-.8,4.9-1,7.4,0,1.2-.3,2.5-.5,3.7-.2,1.3-.6,2.7-.4,4.3Z"/>
    <path class="st10" d="M-1814.9,40.8c-2.7-7.8-5.1-15.7-7.9-23.3h-.3c-3.2,7.7-6.4,15.4-9.6,23.3h17.8Z"/>
    <path class="st3" d="M-1619.7,6.8c.7.7,1.6.4,2.3.6,1.5.3,3,.8,4.4,1.4,1.7.6,3.5,1.2,4.8,2.6.6.7,1.6.8,2.4,1.5,1.8,1.6,3.3,3.4,4.7,5.3.8,1.1,1.5,2.4,2.1,3.7.6,1.3,1.1,2.7,1.5,4.2s.5,3.2,1.1,4.6c0,.1,0,.2,0,.4-.2,1.9.7,3.8.4,5.7-.5,2.3-.2,4.7-1,7.1-.5,1.3-.4,2.8-.9,4.2-1,2.5-2,5-3.6,7.3-1,1.5-2.2,2.8-3.3,4.3-.7.9-1.8,1.5-2.7,2.4-1.5,1.4-3.4,2.2-5,3.4-.6.5-1.6.5-2.3.8-3,1.5-6.2,2.2-9.6,2.2s-2.2.6-3.4.4c-2.8-.6-5.7-.4-8.6-1.3-1.8-.6-3.5-1.2-5.2-1.9-1.6-.6-3-1.7-4.3-2.8-2.6-2.2-4.9-4.8-6.6-7.8-.8-1.5-1.2-3.3-1.8-4.9-.6-1.7-1.1-3.4-1.5-5.1,0-.3,0-.6,0-1v-7.2c0-2.5.3-4.9,1.1-7.3.8-2.4,1.7-4.8,2.8-7.1.9-1.8,1.9-3.5,3.2-4.9,1-1.1,2.1-2.2,3.2-3.2,1.6-1.6,3.5-2.7,5.4-3.8,1.4-.8,2.9-1.7,4.6-2,1-.2,1.9-.7,2.9-1,.7-.2,1.6.2,2.1-.5h3.7c.4,0,.9,0,1-.5h.2c0,.7.7.5,1.1.5,1.6-.3,3.2-.3,4.8-.3ZM-1625.1,65.3c1.4,0,2.7.3,3.7,0,3.7-1.2,7.3-2.4,10.1-5.4.6-.7,1.2-1.4,1.8-2.1,1.9-2.3,2.8-5,3.9-7.7.4-1,0-2.1.4-3,.8-2.1.8-4.3,1-6.5.2-2.6-.2-5.1-.7-7.6-.5-2.4-.6-4.9-1.5-7.3-.7-1.7-1.3-3.6-2.3-5.1-1-1.6-2.4-3.1-3.7-4.6-1.1-1.3-2.5-2.2-3.9-3.1-2.3-1.5-4.8-2.7-7.4-2.9-2-.2-3.9-.6-6.1-.2-2.8.5-5.5,1-8,2.5-1.5,1-3,1.8-4.2,3.2-1.3,1.5-2.2,3.1-3.2,4.8-.4.7-.9,1.5-1.1,2.3-.4,1.8-1.3,3.4-1.4,5.3,0,1.1-.7,2.2-.6,3.4,0,.5,0,1.1,0,1.5-.6,1.5-.5,3.1-.2,4.5.5,2.3.4,4.7,1,7.1.3,1.5.9,3,1.2,4.5s0,1,.3,1.5c1.1,1.4,1.8,3,2.6,4.6,1.6,3.1,4.3,5.1,7,7,1.1.8,2.6,1.5,4.2,2,2.7.8,4.9,1.8,7.2,1.4Z"/>
    <path class="st14" d="M-1625.9,6.2c0,.6-.6.5-1,.5h-3.7c-.6-.5-1.3-.3-2-.3h-180.7c-.8,0-1.5-.1-2.3-.1,0,0,0-.1.2-.1h189.5Z"/>
    <path class="st2" d="M-1371.7,8.7c0,1,.2,1.9,0,2.8h-3.9c-.9,0-1.1.3-1.1,1.1v48.6c0,1.7,1.1,3.2,3,3,1.3,0,2.7,0,4.1,0s0,0,.3,0c.2.8.2,1.7,0,2.5-.5.3-1,.2-1.5.2h-17.6c-2.2,0-2.3,0-1.8-2.1,0-.2,0-.4.4-.7h3.3c1.1,0,1.5-.3,1.5-1.5V18.8c0-.1,0-.2,0-.4-.9,1.1-1.2,2.3-1.8,3.4-.8,1.7-1.3,3.5-2.1,5.2-1.2,2.7-2.3,5.5-3.5,8.1-.9,2-1.5,4.1-2.4,6-1.4,2.9-2.7,5.9-4,8.9-1.3,3.1-2.8,6-4,9.1-.6,1.5-1,3.1-2,4.5-.3.4,0,1-.4,1.6-.4.7-.8,1.4-1.8,1.3-1,0-1.2-1-1.5-1.6-.3-.7-.8-1.3-1-2-.8-2.2-2.1-4.2-3-6.3-.5-1.1-1-2.2-1.6-3.4-1.2-2.7-2.5-5.3-3.7-8-1.3-2.7-2.7-5.4-3.8-8.1-.8-2.1-1.9-4.2-2.9-6.2-1.3-2.7-2.5-5.6-4-8.2-.7-1.2-1.2-2.7-1.8-4-.9.4-.6,1-.6,1.6v36.4c-.2,1.8.2,3.5.9,5.1,0,0,.2.3.2.4.4,1.5.9,2,2.6,2h4.3c.7,1-.2,1.8-.2,2.6-.5.3-.9.2-1.3.2h-13.6q-1.7,0-1.6-1.7c0-.3,0-.6.2-1.1.8,0,1.7,0,2.6,0,2.2-.2,2.6-.4,2.6-2.7,0-14.4,0-28.9,0-43.3,0-2-.3-4.2-2-5.7-.6-.6-1.3-1-2.2-.9-1.2,0-2.3-.7-3.5-.4-.2-.8-.2-1.5,0-2.4,4.9,0,9.9-.2,14.6,0,7.4,15.2,14.7,30.3,22.1,45.5,1.4-2.1,2.2-4.4,3.2-6.6.2-.4.3-.9.5-1.3.9-1.5,1.4-3.3,2.2-4.9.4-.7.8-1.5,1.1-2.3,1.1-2.3,2.2-4.7,3.2-7,.7-1.7,1.7-3.2,2.4-4.9.4-1,.7-2.1,1.1-3.1,1-2.2,2-4.3,3-6.5.8-1.8,1.6-3.6,2.4-5.5.3-.7.6-1.5.9-2.2.3-.9.8-1.3,1.9-1.3,3.5,0,7,0,10.4,0,.5,0,.9,0,1.4,0Z"/>
    <path class="st10" d="M-1647.9,152.3c.9,0,1.9-.1,2.8,0,2.3.2,2.6-.9,2.8-2.9.2-1.7,0-3.4,0-5.2v-40.2c0-1.6-.4-3.3-1.5-4.7-.4-.5-.9-.6-1.5-.6h-4.6c0-.2-.2-.2-.2-.3q-.3-2.5,2.2-2.5h25.1c1.5,0,2.8.7,4.2.9,1.7.3,3.4.9,4.9,1.8,2.3,1.4,4.2,3.2,5.7,5.6,2.1,3.3,2.1,6.9,1.8,10.5-.2,1.7-1,3.4-2,5-1.5,2.6-3.8,4.2-6.2,5.5-1.8,1-3.8,1.6-5.8,2,0,1,1,1.2,1.3,1.9,1.1,2.1,2.7,3.8,4,5.8,1.1,1.6,2.1,3.1,3.3,4.6,1.5,1.9,2.8,4,4.4,5.8.9,1,1.7,2.2,2.6,3.2,1.7,1.9,3.6,4,6.6,3.6,0,0,.3,0,.5.1.3.8,0,1.7,0,2.5-.4.4-.9.2-1.3.2-2.7,0-5.4-.2-8,.1-2.3.2-3.6-1-4.8-2.6-1.3-1.7-2.7-3.4-4-5.2-.9-1.2-1.6-2.4-2.4-3.6-1.7-2.6-3.4-5.1-5-7.7-1.2-1.9-2.5-3.8-3.6-5.8-.8-1.4-1.6-2.2-3.3-2-1.1.2-2.3,0-3.5,0-.8,0-1.1.2-1.1,1,0,6.4,0,12.9,0,19.3,0,2.2.6,3.8,3.7,3.7.9-.1,1.8,0,2.6,0,1.2-.1,1.4.7,1.5,1.6,0,1-.5,1.3-1.4,1.3h-18.1c-2.1,0-2.4-.3-1.9-2.7ZM-1634.1,125.4c3.4.4,6.8.2,10.1-.4,2.9-.6,5.7-1.8,7.8-4.3,1.4-1.6,2-3.5,2.2-5.4.4-3.1,0-6.1-1.8-8.9-2.5-4.1-6.1-6.3-10.8-6.7-2,0-4,0-6,0s-1.7.4-1.7,1.7v22.9c.1.3,0,.7.2,1.1Z"/>
    <path class="st10" d="M-1529.5,124.8c0,2-.3,4.1-.7,6.3-.4,2.3-1,4.4-1.7,6.5-.5,1.2-.9,2.5-1.7,3.7-1.1,1.8-2.3,3.6-3.7,5.3-1.2,1.4-2.5,2.7-3.9,3.7-1.7,1.3-3.4,2.5-5.3,3.5-1.4.8-3,1.2-4.4,1.7-2.4.9-4.9,1.2-7.4,1.2s-4.7.3-7.1-.1c-3.3-.5-6.5-1.4-9.6-2.8-3.4-1.6-6-4-8.4-6.7-1.3-1.4-2.3-3.2-3-5.1-.5-1.3-1.4-2.4-1.7-3.8-.3-1.6-.8-3.2-1.1-4.9-.2-1.3-.3-2.7-.6-4-.4-1.8-.3-3.8,0-5.7.4-1.9.5-3.8,1-5.6.3-1.4.8-2.9,1.4-4.2,1-2.3,2-4.5,3.5-6.5.6-.8,1.2-1.7,1.9-2.4,2.5-2.8,5.4-5.1,8.6-7,.7-.4,1.6-.6,2.4-1,1.8-.9,3.7-1.3,5.6-1.8,1.2-.3,2.5-.4,3.7-.5,2-.2,4.1,0,6.1,0,1.8,0,3.7.3,5.5.8,3.1.9,6.1,2.3,8.9,4,.8.5,1.7,1.2,2.3,2.1,0,0,0,.2.2.3,2.3,1.4,3.4,3.7,4.8,5.8,1.3,1.9,2,4,2.6,6.1.5,1.5.7,3.2,1.1,4.8.4,2,.6,4,.6,6.3ZM-1581.5,124.2v1.2c0,2.6,0,5.2.8,7.7.3,1.2.3,2.6.9,3.7.7,1.5,1,3.1,1.8,4.5.6,1,1.4,1.9,2,2.9,1.6,2.8,4.1,4.7,6.8,6.4,2.1,1.3,4.4,2.4,7,2.7,1.5.2,3,.6,4.4.3s2.8-.4,4.2-.5c2-.2,3.5-1.3,5.1-2,2.2-1,4-2.7,5.5-4.7,1-1.3,1.8-2.7,2.5-4.2.8-1.7,1.4-3.5,1.8-5.3.4-1.7.9-3.3.9-5.1,0-3.6,0-7.1,0-10.7s0-.7,0-.9c-1.1-2.1-.9-4.7-1.9-6.8-.7-1.5-1.2-3.1-2.2-4.5-.9-1.3-1.8-2.7-2.9-3.9-1.4-1.5-2.8-2.8-4.5-4s-3.6-2.1-5.7-2.7c-1.4-.4-2.9-.7-4.4-.8-1.6,0-3.3,0-5,.3-2.5.5-4.8,1.2-7,2.5-1.9,1.2-3.6,2.7-4.9,4.5-1.8,2.3-2.9,5-3.8,7.9-.8,2.8-1.4,5.6-1.4,8.5,0,1.1,0,2,0,3Z"/>
    <path class="st3" d="M-1483.8,6.7c2,0,3.9-.1,5.9.1.2.1.4.2.5.2,2-.1,3.8.6,5.7,1,2,.5,3.8,1.3,5.6,2.1,1.8.9,3.4,2.2,4.8,3.7.7.7,1.7,1.2,2.3,2.1,1.2,1.6,2.3,3.3,3.2,5.1.8,1.6,1.5,3.2,2,4.8.3,1.1.4,2.3.7,3.4.9,3.4.8,6.9.7,10.4,0,1.9-.6,3.8-1,5.7-.4,2.5-1.7,4.7-2.6,7-.6,1.4-1.7,2.5-2.4,3.9-.9,1.6-2.3,2.7-3.5,4-1.2,1.4-2.8,2.4-4.3,3.5-1.6,1.2-3.6,2-5.5,2.7-2.1.7-4.3,1.4-6.5,1.7-2.7.4-5.4.3-8.1.3s-4.6-.2-6.7-1.4c-.6-.3-1.5,0-2-.2-1.5-1-3.4-1.4-4.8-2.6-.9-.7-1.8-1.4-2.8-2-1.1-.7-1.9-1.7-2.6-2.7-.7-.9-1.6-1.5-2.1-2.5-1.1-1.9-2-3.9-2.9-6-1-2.4-1.1-5.1-1.7-7.6-.5-2.6-.4-5.1-.2-7.6.2-2.5.7-4.9,1.3-7.3.6-2.4,1.7-4.5,2.8-6.5,1.9-3.6,4.6-6.7,7.9-9.2,1.3-1,2.6-2,4-2.6,1.7-.7,3.2-2,5.2-2s1.5-.6,2.3-.8c1.3-.4,2.7-.3,4-.3.3,0,.6,0,.8-.4ZM-1504.3,36.2v.6c0,1.6-.2,3.2,0,4.7.3,1.5.7,2.9,1,4.4.4,2.1,1.1,4,1.9,5.9s2.1,3.6,3.3,5.3c1.4,2,3.2,3.7,5.3,5,1.4.9,3,1.8,4.7,2.2,1.6.4,3,1.2,4.8,1.1,1.9,0,3.8,0,5.6,0s.8,0,1.3-.2c1.8-.7,3.5-1.5,5.3-2.3,1.6-.7,2.9-1.8,4-2.9,1.6-1.6,3-3.6,3.9-5.8.3-.6.9-1.2.9-1.8,0-1.4.6-2.4,1-3.6.7-2.4.9-4.9,1-7.3.2-3.3,0-6.7-.7-10-.6-2.4-1.1-4.8-2.1-7.1-1.3-3.1-3.1-5.9-5.6-8.2-.4-.4-.6-1-1.1-1.3-2-.9-3.4-2.6-5.6-3.3-2-.6-4-1.3-6.1-1.6-2.4-.3-4.8-.2-7.1.4-3.1.8-6,2.2-8.4,4.5-.9.8-1.5,1.8-2.3,2.7-1,1.3-1.8,2.6-2.4,4.2-.7,1.7-1.3,3.4-1.6,5.2-.4,1.9-1.1,3.7-1,5.6-.1,1.2-.1,2.4-.1,3.6Z"/>
    <path class="st5" d="M-1583,66.9c-.4-3.6,0-3.2,2.4-3.1,2.5.2,2.9-.5,2.9-2.9V17.2c0-1.9-.3-3.7-1.9-5.1-1.3-1.2-2.9-1-4.5-1s-1.6-.7-1.1-1.7c0-.3,0-.6.2-.9.4-.3.9-.2,1.3-.2,3.2,0,6.3.2,9.5,0,1.9,0,3.1.8,3.9,2.1.8,1.2,1.9,2.1,2.7,3.3,1.7,2.6,4.1,4.7,5.8,7.3,1,1.5,2.4,2.7,3.5,4.1,2,2.6,4.3,4.9,6.3,7.5,2.2,2.9,4.6,5.5,6.8,8.5,1.2,1.6,2.7,3,3.9,4.6.9,1.2,1.9,2.3,2.9,3.4,1.2,1.5,2.2,3.2,3.9,4.3.4-.3.3-.7.3-1V15.2c0-.9-.2-2-.8-2.8-.7-1-1.7-1.6-3.1-1.4-1.1,0-2.3,0-3.4,0-.4-.6-.2-1.1-.2-1.6,0-.8.4-1.2,1.1-1.2h14.6c.8,0,1.4.9,1,1.5-.2.4,0,.8-.4,1.2-.6.2-1.3,0-2,0-2.7-.2-3.2,1.2-3.3,3.3-.2,2.2,0,4.5,0,6.7v45.3c0,.4.3,1-.3,1.3-.6.2-.7-.3-1.1-.6-2.2-1.8-3.6-4.2-5.4-6.3-.8-.9-1.5-1.9-2.3-2.7-1-1.1-1.9-2.2-2.8-3.3s-1.8-2.2-2.7-3.3c-1.6-1.9-3.2-3.9-4.9-5.8-1.5-1.7-2.7-3.5-4.4-5.1-1.2-1.2-2.2-2.7-3.3-4-1.2-1.4-2.4-2.9-3.5-4.3-1.6-1.9-3.2-3.9-4.8-5.8-1.8-2.1-3.3-4.4-5.3-6.3-.8-.8-1.3-2-2.4-2.6-.3.3-.2.6-.2.9v39.7c0,1.8.8,3.4,1.3,5.1.2.5.7.6,1.2.5h4.1c1.5,0,1.2,1.1,1.3,2,0,1-.4,1.2-1.2,1.2h-14.6c-.3,0-.6,0-1,0Z"/>
    <path class="st8" d="M-1804.2,98.5c0-.3,0-.4,0-.4q0-2,1.8-2h13.3c.4,0,.9,0,1.4.2.2.7,0,1.4,0,2.1-.8.3-1.6,0-2.4.2-2.2.2-3.1.7-3.1,3.1v52.2c0,.6.2,1.3-.6,1.7-1.3-.6-2.2-1.6-3-2.7-1.1-1.5-2.1-2.9-3.3-4.3-1.2-1.3-2.1-2.7-3.3-4-1.9-2-3.5-4.3-5.4-6.4-1.3-1.5-2.6-3.2-3.8-4.8-.6-.8-1.4-1.6-2-2.5-.8-1.1-1.7-2-2.6-3.1-1.4-1.7-2.8-3.3-4.2-5-1-1.2-2-2.5-3-3.7-2.1-2.5-4.1-5.1-6.2-7.6-1.1-1.3-2.1-2.6-3.3-3.8-.7-.7-.9-1.8-2-2.2-.3.3-.2.8-.2,1.1v40.6c0,1.6.6,3,1.5,4.2.4.5.8.7,1.4.7h4.7c0,.9.5,1.8,0,2.8h-16.7c-.3-.9-.2-1.7,0-2.6,1.1-.2,2.2-.1,3.2-.1,1.5,0,2.2-.7,2.2-2.2,0-14.5,0-29,0-43.6,0-1.9,0-4-1.5-5.8-.9-1.2-2-1.8-3.3-1.9-.9,0-1.9,0-2.9,0-.2-.9-.2-1.6,0-2.2.4-.3.7-.2,1.1-.2h11.5c.6,0,.9,0,1.3.7,1.2,1.7,2.7,3.2,4,4.9,1.5,2,3.2,3.8,4.7,5.8,1.2,1.6,2.6,3.2,3.8,4.8.9,1.2,1.9,2.2,2.8,3.4.7.9,1.4,1.9,2.2,2.8.9,1,1.6,2.2,2.5,3.1,1.1,1.2,2.2,2.5,3.3,3.8,1.4,1.8,3,3.3,4.2,5.3,0,0,0,.2.2.3,2.5,2.4,4.3,5.5,6.6,8,.7.8,1.3,1.7,2,2.5.2.2.4.3.7.2.3-.3.2-.6.2-1v-35.5c0-.8-.2-1.6-.5-2.1-.6-1.1.2-2.5-1-3.4-.8-.6-1.5-1.1-2.6-1.1-1-.3-2.3-.3-3.5-.3Z"/>
    <path class="st3" d="M-1268.4,99.1c0-.7-.2-1.4,0-2.2h16.8c0,.9,0,1.7,0,2.6-1.1.2-2.2,0-3.4,0s-2.4,1-2.5,2.4v52.9c0,.5.3,1.1-.4,1.3-.7.2-1-.4-1.4-.8-1.5-1.7-3-3.4-4.4-5.2-2-2.5-4.2-4.9-6.1-7.4-1.4-1.8-3.1-3.4-4.3-5.3-1.1-1.7-2.9-2.8-3.7-4.7-.4-.9-1.4-1.4-2-2.2-1.8-2.5-3.9-4.9-6-7.3-2.1-2.5-4.2-5.1-6.1-7.7-.6-.8-1.4-1.6-2.1-2.4-1.8-2.4-3.8-4.6-5.7-6.9,0,0-.2-.2-.4-.3-.5.3-.3.7-.3,1.1v41.3c0,1.5.3,3.1,1.9,3.9,1.1.6,2.5.4,3.7.5,1.9,0,2,0,1.9,1.9,0,.2,0,.4,0,.6h-16.3c-.3-.5-.2-1-.2-1.5,0-.8.4-1.2,1.2-1.2h2c1.4,0,2.3-.9,2.3-2.3v-44.2c0-1.7-.3-3.6-1.3-5-1.3-1.8-3.2-2.1-5.3-2-.9,0-1.6,0-1.6-1.3s.3-1.1,1.1-1.1h12.5c.5,0,.8.3,1.1.7,1.1,1.6,2.3,3.2,3.6,4.7,1.4,1.7,2.8,3.4,4.1,5.2.8,1,1.8,2,2.6,3,.8,1,1.7,2,2.4,3,.8,1.1,1.6,2.2,2.5,3.2,1.5,1.7,3,3.5,4.3,5.3,2.3,3.2,5.4,5.7,7.4,9.2.7,1.2,1.9,2,2.7,3.1,2,2.6,4.1,5.1,6.2,7.6.3.4.6.4,1,.5.3-.3,0-.7,0-1.1v-36.4c0-1.4-.6-2.7-1-3.9-.6-1.7-2.5-1.3-3.9-1.6-1,0-2,.2-2.9,0Z"/>
    <path class="st10" d="M-1331.1,115.1c.9-.2,1.6-.2,2.3,0v15.5q0,0-.2,0c-2.1.3-2.2.3-2.2-1.8s0-2.7-1.5-3.4c-.3,0-.6-.2-.9-.2h-20c-.2,0-.4,0-.5,0-.3.5-.2.9-.2,1.3v19.6c0,1.3.4,2.5.5,3.7,0,.9,1.4,1.7,2.4,2,2,.5,4,.5,5.9.3,3.4-.4,6.8,0,10.2-.4,1.9-.2,3.9-.5,5.8-.9,1.4-.4,2.6-1,4-1.4.6-.2,1.1-1,1.6-1.6.2-.3.4-.6.7-.8.4-.3.6-1,1.3-.5.6.4.6,1.1.4,1.6-.5.9-.4,2-.8,2.8-.6,1.4-.8,2.8-1.5,4.1-.3.6-.8.4-1.3.4h-41.2c-1.5,0-1.9-.4-1.7-1.9,0-.7.5-.9,1.2-.9h2.8c1.3,0,1.9-.6,2-1.8v-48.7c0-1.5-1.3-2.9-2.8-2.9h-4c-.7,0-1.2,0-1.1-.9,0-.8-.2-1.8,1.1-1.9h43.2c1.8,0,2.5.8,1.8,2.6-.3.8-.2,1.5-.3,2.2-.2,1.2-.3,2.3-.7,3.4,0,.3-.3.5-.7.5s-.9-.2-.9-.6c-.2-2.2-1.9-2.9-3.7-3.3-2.9-.6-5.8-1.4-8.8-1.3-4.5.2-9,0-13.4,0-1.2,0-1.6.6-1.6,1.6v19.2c0,1.2.9,1.2,1.8,1.2,3.7,0,7.4,0,11,0,2.2,0,4.4-.5,6.6-.5s1.8-.5,2.6-1c.7-.5,1.3-1.1,1.2-2.2-.5-1.1-.4-2.2-.4-3.3Z"/>
    <path class="st3" d="M-1127.8,155.9h-42c-.5,0-1.2.3-1.4-.3-.3-.7-.2-1.5,0-2.2,0-.4.5-.3.8-.3h3.2c.9,0,1.4-.3,1.4-1.3v-48.5c0-.8-.3-1.6-.5-2.4-.2-.6-2.2-1.5-2.8-1.2-1,.6-1.9,0-2.8,0-.5,0-1.1,0-1.7-.2-.2-.9,0-1.7,0-2.6h46c0,.8.3,1.6-.2,2.4-.3.5,0,1.2,0,1.8-.2,1.3-.3,2.6-.8,3.8,0,.3-.4.7-.8.6-.4,0-.7-.4-.8-.8-.4-1.5-1.2-2.3-2.8-2.9-2.3-.8-4.5-.9-6.8-1.1-1.5,0-2.9-.5-4.4-.7h-11.4c-1,0-2,1-2,2.1v19.1c0,.2,0,.5.2.7.4.2.9,0,1.4,0h16.1c1.6,0,3-.2,4.4-1.1.8-.6,1.2-1.3,1.2-2.2v-3.2c2-.5,2.4-.2,2.4,1.7v13.7c-.8.3-1.5.2-2.3,0-.2-1,0-1.9,0-2.9,0-2.1-.7-2.5-2.4-2.4-4.3,0-8.6-.7-13-.5-2.5,0-5.1,0-7.6,0-.4.5-.3,1-.3,1.4,0,6.3,0,12.6,0,19,0,1.8.2,3.6.8,5.3.3.9,1,1.5,2,1.5,4.9,0,9.8.2,14.6-.1,2.8-.2,5.6-.5,8.3-1.3,1.9-.5,3.2-1.7,4.7-2.6.2-.2.4-.5.5-.8,0-.5.4-.8,1-.6.5.1.8.5.8,1.1s0,.5,0,.7c-1.5,2.1-1.6,4.7-2.8,7.1Z"/>
    <path class="st4" d="M-1581.2,205.5c.7-.2,1.5,0,2.4-.1.4,0,.7.3.9.5.8,1.3,1.8,2.5,1.6,4.1,0,.8.5,1.4.4,2.2-.3,2.5-.7,4.9-2.4,6.9-1.1,1.3-2.1,2.8-3.7,3.7-1.9,1-3.7,2.1-5.9,2-1.7-.1-3.3.1-5-.2-.8-.1-.9.9-1,1.5-.4,2.3-1.4,4.2-2.5,6.1-1,1.8-2.2,3.4-3.7,4.8-1.3,1.2-2.8,2.2-4.2,3.2-1.9,1.5-4,2.4-6.2,3.1-1.6.6-3.4.8-5.1,1.2-2.8.5-5.6.3-8.3.3s-5.5-.6-8-1.6-4.9-2.5-6.7-4.4c-1.9-2-3.4-4.6-4.2-7.4-.8-2.9-1-5.8-.7-8.7.2-2.6.8-5.2,2-7.5,1.8-3.3,4-6.2,7-8.5,1.6-1.2,3.1-2.4,5-3.1.5-.2.8-.5,1.2-1-2.1-2.8-1.6-6.1-1.4-9.3,0-1.5,1.1-2.9,2-4.2,1-1.7,2.5-2.9,4.1-3.9,1.7-1,3.6-1.7,5.5-2.1,2.2-.5,4.5-1,6.8-.7,2.4.3,4.7.9,7,1.8.9.4,1.2.9,1,1.8-.4,1.7-.8,3.4-1.2,5.1,0,.4-.4.4-.6.4-.3,0-.5-.1-.6-.5-.5-2.4-2.5-3.2-4.6-3.9-1.9-.6-3.8-.4-5.7-.3-.9,0-2,.2-2.8,1-.7.6-1.7.6-2.5,1.3-1.1.9-2.1,1.9-3,3-1.3,1.6-1.4,3.6-1.8,5.5-.3,1.4.3,2.8.9,4.1,3.1-1.3,6.3-.9,9.5-.7,2.3.1,4.3,1.9,4.2,4.4,0,1.1-1.5,2.8-2.8,3s-2.5.4-3.9.5c-3.2.1-5.7-1.3-7.9-3.3-.2-.2-.3-.4-.4-.5-1.9.5-3.2,1.7-4.6,2.6-2.1,1.4-3.6,3.5-4.7,5.7-.9,1.8-2.1,3.7-1.7,6,.2.8-.4,1.5-.4,2.3,0,2,0,4.1.6,6,.6,2.3,1.6,4.7,3.2,6.7,1.9,2.3,4,4.1,6.6,5.2,1.9.8,3.8,1.6,6,1.6s3.1.4,4.6.3c4.2-.2,8.2-1,11.8-3.2,2.3-1.4,4.3-3.2,5.8-5.4,1.1-1.7,2.2-3.5,2.3-5.7,0-.7.5-1.4.4-2.2,0-1.3-.6-1.7-2.4-2.4-1.5-.6-3-1.4-4.5-2.1-1.5-.8-3.2-1.7-5-1.8-.8,0-1.5-.2-2.3-.1-2.3.1-3.1,1.8-4.2,3.2-.4.6-.8,1.2-.9,2,0,.5-.5.7-1.1.7s-1,0-1-.4c0-.6,0-1.3.3-1.9.6-2.3,2-4.2,3.8-5.6,1.2-1,2.8-1.6,4.3-2,1.9-.4,3.8-.3,5.7,0,1.9.3,3.7,1,5.5,1.8,2.7,1.2,5.5,2.3,8.4,3.2,2.7.8,5.5.9,8.2.1,2-.6,3.7-3.3,3.9-5.4,0-1.4-1.1-1.6-1.7-2.1-.8-.6-1.1-1.5-1.4-2.3-1-1.5-1.3-3-.2-4.4ZM-1624.1,203.7c1,1.5,2.7,2.3,4.3,2.8,1.3.5,2.9.4,4.1-.8.5-.6.6-1.2,0-1.8-.9-1.1-2.4-1.5-3.6-1.4-1.7.1-3.3.4-4.9,1.2Z"/>
    <path class="st4" d="M-1773.9,154.7c-.3-.6,0-1-.2-1.5,0-.8.4-1.3,1.2-1.2h3.1c.6,0,1.1-.2,1.2-.9.2-1,.4-2,.4-3v-41.4c0-2.4-.6-4.6-1.2-6.9-.2-.6-2-1.3-2.8-1.2-1.2,0-2.4,0-3.6,0-.9,0-.7-1-.7-1.7s.8-.7,1.2-.7h43.3c.3,0,.7,0,1.2,0-.2,1.9.2,3.6-.3,5.5-.3,1.2-.3,2.3-1.6,3.1-.2-.4-.4-.9-.6-1.3-.7-1.4-1.8-2.2-3.4-2.6-7.3-2.2-14.7-1.3-22.1-1.5-1.4,0-2,.6-2,2.1v19.6c.5.4.9.3,1.3.3,4.5,0,9,.2,13.4,0,2.3,0,4.6,0,6.8-.8.9-.3,1.5-1.5,1.6-2.7v-2.3c0-.8.4-.9,1.1-.9s1,0,1,.8v13.8c0,1.6-1.2.6-2,.8v-2.4c0-1.7-.7-2.3-2.3-2.8-1.2-.4-2.4-.2-3.5-.3-5.2-.8-10.5-.2-15.7-.4-1.5,0-1.6,0-1.6,1.7,0,6.9,0,13.8,0,20.6,0,1.6.4,3.3,1.6,4.7.3.4.8.5,1.3.5,4.6,0,9.3.2,13.9-.1,3.5-.2,7.1-.4,10.3-1.9,1.8-.8,3.3-2,4.1-3.9,1.2.2,1.2,1.1,1,1.7-.7,2.1-.9,4.3-1.8,6.3-.4.9-.9,1.1-1.8,1.1h-41.2c0-.1-.3-.1-.6-.1Z"/>
    <path class="st17" d="M-1699.4,98.8h-3.5c-1,0-1.4.4-1.4,1.4,0,2.1,0,4.2,0,6.2,0,1.8-.3,3.7-.3,5.5s0,1.2.2,1.8c0,.6,0,1,0,1.6-.3.9.2,1.9,0,2.8-.3,1.3.2,2.7,0,4.1-.2,1,.3,2.1.2,3.2-.4,2.9-.3,5.8-.2,8.7,0,3.1.3,6.1,1.3,9,.3.9.7,2,1.6,2.9.6.6,1.1,1.5,1.7,2.2,1.9,2.2,4.4,3.1,7,3.9,1.7.5,3.5,1,5.3.8,1.9-.3,3.8-.6,5.7-1,2.1-.5,3.9-1.3,5.7-2.4,1.2-.8,1.9-1.8,2.8-2.9.8-.9,1.3-2.1,2.1-3,.3-.3.3-.6.3-1s0-.7,0-.9c1.4-2.3,1.4-4.9,1.4-7.4v-30.4c0-1.8-.6-3.4-1.8-4.8-.3-.4-.8-.4-1.2-.4h-4.3c-.4-.8-.2-1.5-.2-2.2s.6-.6,1.1-.6h15.4c.2.9.2,1.8,0,2.7-1,.2-2,0-3,0-1.5,0-2.4.9-2.4,2.4v34.4c0,1.8,0,3.7-1,5.4-.3.5-.3,1.2-.5,1.8-.5,2-1.7,3.7-2.8,5.4-1.3,2-3.1,3.5-5,4.8-1.5,1.1-3.4,1.8-5.3,2.4-3.9,1.2-7.9,1.4-11.8,1.1-3.1-.2-6.3-.7-9.1-2-2.8-1.4-5.5-3.1-7.2-5.9-1.1-1.8-1.9-3.7-2.5-5.7-.2-.7-.2-1.6-.3-2.3-.2-1.1-.6-2.3-.6-3.5,0-11,0-22.1,0-33.1,0-1.5,0-3.3-1.3-4.6-.4-.4-.7-.6-1.2-.6h-3.5c-1.5,0-2.1-1-1.7-2.4.2-.6.6-.5,1-.5h7.6c3.6,0,7.3,0,10.9,0,1.2,0,1.7.3,1.5,1.5-.5.6-.4,1-.7,1.5Z"/>
    <path class="st5" d="M-1786.1,10.7c-.2-.9-.2-1.6,0-2.3h20.7c.2.7,0,1.4,0,2.2-.9.3-1.9.2-2.8.2-1.8,0-2.6.8-2.6,2.6v32.6c0,1.4,0,2.9.7,4.3,0,.2,0,.5,0,.7,0,3.3,1.6,5.8,3.4,8.4,1.6,2.3,4.1,3.1,6.3,4.4.7.4,1.7,0,2.5.4,1.2.4,2.4.7,3.7.5,1.3-.2,2.6-.4,3.9-.7,1-.2,2,0,3-.4,2.2-.8,4.3-1.9,6-3.3,1.5-1.3,2.9-2.9,3.6-4.8.5-1.5,1-3,1.4-4.6.5-1.7.2-3.4.4-5.1.8-9,.3-18,.3-27s.2-4.3-1-6.3c-.7-1.1-1.3-1.8-2.7-1.7-1.3,0-2.6,0-3.9,0-.3-.8-.2-1.5,0-2.2.5-.3.9-.2,1.3-.2h13.6c2,0,2.2.2,1.9,2.3-.8.2-1.6.2-2.3,0-1.2,0-2.1.3-3,.9-.6.4-.5.9-.5,1.5,0,11.6,0,23.3,0,34.9,0,1.8-.6,3.4-1,5.1-.3,1.2-.6,2.5-1.2,3.6-1.7,2.9-3.8,5.3-6.5,7.3-1,.7-2.1,1.3-3.1,1.9-2,1.1-4.3,1.3-6.5,1.9-2.8.7-5.6.3-8.3.3s-3.4-.4-5.2-.9c-1.4-.4-2.8-.7-4.2-1.3-1.7-.8-3.1-1.9-4.5-3.1-1.5-1.3-2.6-2.9-3.4-4.7-.7-1.5-1.2-3.2-1.5-4.9-1.5-6.9-.5-13.8-.7-20.7-.2-4.1,0-8.2,0-12.4,0-2.3-.6-4.5-.5-6.9,0-1.3-1.4-2.5-2.8-2.5-1.7-.1-3.2-.1-4.7-.1Z"/>
    <path class="st5" d="M-1417,105.4c-.5.2-.9.2-1.4,0,0-1.9-1.2-3.4-2.6-4.4-1.1-.8-2.5-1.2-3.8-1.7-3.5-1.3-7.2-1.5-10.9-1.1-2.3.2-4.6.7-6.7,1.6-1.8.8-3.6,1.5-5.2,2.7-2.4,1.7-4.5,3.7-6.2,6.1-1,1.5-1.9,3-2.7,4.6-.7,1.5-1.2,3.1-1.7,4.7-.7,2.1-.9,4.4-1.1,6.6-.2,2-.3,4.1.2,6.2.3,1.5.4,3.2.9,4.7.6,2,1.2,4,2.3,5.8,1.3,2,2.6,4.1,4.3,5.7,2.7,2.4,5.7,4.2,9.1,5.5,4,1.6,8,1,12,1s4.3-1.1,6.4-1.8c2.1-.8,4-1.8,5.6-3.4.9-.9,1.4-1.9,1.6-3.2,0-.4.3-.8.5-1.2s.6-.7,1.1-.6c.5.1,1,.5.8,1-.7,2.2-.2,4.5-.6,6.8-.3,1.4-.9,1.9-2.1,2.3-2.4,1-4.9,1.9-7.5,2.4-2.1.4-4.2.8-6.4,1-2.2.2-4.4.3-6.6.3s-4.2-.5-6.3-.7c-2.4-.2-4.6-.9-6.8-1.7-1.7-.6-3.3-1.3-4.7-2.3-1.2-.8-2.4-1.6-3.5-2.5-.5-.4-.9-.9-1.4-1.4-2.7-2.8-4.5-6.1-5.8-9.7-.7-2.1-.7-4.1-1.1-6.2-.4-1.9-.4-3.8-.3-5.7,0-1.8.6-3.6.6-5.3,0-2.7,1.3-4.9,2.2-7.3.6-1.8,1.8-3.4,2.9-5.1,1.2-1.7,2.4-3.4,4.1-4.7,1.3-1,2.5-2.2,3.8-3.2,2.1-1.7,4.5-2.7,6.9-3.8.7-.3,1.5-.6,2.3-.9,2.3-.9,4.8-1.1,7.1-1.9h.2c2.3.2,4.5-.8,6.7-.3,1.7.3,3.4.4,5.1.6s3.2.8,4.8,1c1.5.2,2.9,1,4.4,1.5,0,0,.3.2.3.3,0,1.4,0,2.8,0,4.2-.1,1.3-.5,2.4-.7,3.5Z"/>
    <path class="st3" d="M-1183.8,143.8c0,1.3,0,2.6-.3,3.8-.3,1.2-.2,2.5,0,3.8s-.6,1.7-1.5,2.1c-2.1.9-4.3,1.7-6.5,2.3-1.4.4-2.8.6-4.2.9-2.6.6-5.3.7-7.9.9-1.9.2-4.1.4-6.1-.4-.2-.1-.5-.1-.7-.1-1.6.1-3.1-.3-4.6-.8-1.9-.6-3.8-1.1-5.7-1.9-1.6-.7-2.9-1.7-4.4-2.5-1.8-1-2.8-2.8-4.5-3.8-.6-.4-1-1.2-1.4-1.8-1.5-2.2-2.9-4.6-3.5-7.1-.5-2.4-1.7-4.7-1.4-7.2,0-1.5,0-3,0-4.6,0-2.5.6-4.9,1.1-7.3s1.5-4.6,2.5-6.8c1-2.3,2.5-4.5,4.2-6.3,1.8-1.9,3.6-3.8,5.8-5.3,3.1-2.1,6.3-3.7,9.8-4.8,1.3-.4,2.7-.8,4-1.1,1.6-.4,3.2-.6,4.8-.9,2.1-.3,4.4-.4,6.5,0,0,0,.2,0,.2,0,2.1-.4,4.1.9,6.2.8,1,0,1.4.8,2.4.9,1.2,0,2.4.5,3.4,1.1.4.2.8.4.4,1-.2.3,0,.7,0,1.1.3,1.7-.5,3.3-.4,4.9,0,.8-.6,1-1.5.8,0-1-.7-1.8-1-2.8-.2-.7-1.1-1.1-1.8-1.6-1.6-1.1-3.4-1.7-5.3-2.2-3.1-.9-6.3-1.1-9.5-.7-1.9.2-3.7.7-5.6,1.3-2.5.8-4.9,2-7,3.4-1.3.9-2.7,1.9-3.5,3.5-.2.4-.7.9-1.1,1.3-1.1,1-1.8,2.1-2.4,3.5-.5,1-.9,2.1-1.4,3.1-.8,1.6-1.2,3.4-1.6,5.1-.7,3-1.1,6.2-.8,9.3.2,2.6.5,5.1,1.3,7.6.7,2,1.6,3.8,2.5,5.7.3.7.8,1.2,1.3,1.7,1.8,2.5,4,4.5,6.6,6.2,1.6,1.1,3.5,1.7,5.2,2.6.5.3,1.1.2,1.6.3,2.7.5,5.3,1.5,8,.9,4.1-.9,8.2-1.5,11.9-3.9,2.1-1.3,3.8-3,4-5.6.2-.9,1-.8,2.1-.6Z"/>
    <path class="st5" d="M-1270,9.8c0,2.7-.4,5.2-.8,7.6,0,.4-.4.8-.8.7s-.6-.4-.8-.8c-.3-1-.4-2-1.1-2.8-1.5-1.6-3.4-2.3-5.4-3s-4.1-.7-6.1-1.1c-1.2-.3-2.5,0-3.8,0-2.7.3-5.5.6-8,1.8-2,.9-4,1.7-5.7,3.1-2,1.6-3.7,3.4-5.2,5.4-1.2,1.6-2.3,3.3-2.8,5.2,0,.2,0,.4-.3.5-1.1,1.3-.7,3-1.4,4.4-1.4,2.7-.7,5.5-.8,8.2,0,2.4-.4,4.9.7,7.2.3.7.4,1.7.6,2.6.3,1.3.9,2.5,1.6,3.7.9,1.6,1.8,3.2,3.1,4.5,1.5,1.6,3,3.3,5,4.3s1.8,1.2,2.8,1.7c.6.3,1.2.5,1.9.7.9.2,1.8.7,2.7,1.1.7.3,1.3.5,2.1.4,2.3,0,4.6,0,6.8,0,2.2,0,4.1-.8,6.2-1.3,1.6-.4,3-1.2,4.3-2,2.3-1.3,4.2-3.2,4.7-6,0-.7.5-1,1.1-1,.7,0,1,.5.9,1.2-.2,1.9-.2,3.9-.7,5.8v.2c0,.9.3,1.9-1,2.4-.9.3-1.6,1-2.6,1.1-.9,0-1.5.8-2.5.9-2.3.3-4.4,1.1-6.7,1.5-3.7.6-7.4,1-11.1.7-3.2-.3-6.3-.6-9.4-1.7-1.9-.7-3.8-1.2-5.6-2.2-1.7-1-3.6-1.9-5-3.3-1.8-1.7-3.7-3.6-4.7-5.9-.5-1.1-1-2.3-1.6-3.3-.8-1.7-.9-3.5-1.6-5.2-.4-1.1-.6-2.4-.6-3.5,0-2.1,0-4.2,0-6.4s.5-3,.8-4.5c.4-2,1-3.9,1.9-5.7,1-1.9,1.9-4,3.2-5.7.8-1,1.3-2.2,2.3-3,2.2-1.9,4.1-4.1,6.8-5.5,1.7-.9,3.3-2.2,5.1-2.8,2-.7,3.9-1.8,6-1.8s1-.3,1.5-.4c2.3-.6,4.6-.9,7-.8h4.3c1.9,0,3.8.3,5.6,1,.8.3,1.6.2,2.3.3,1.7.3,2.9,1.7,4.8,1.4Z"/>
    <path class="st3" d="M-1517.4,154.6c0-3.3-1.6-6.3-1-9.7,1-.2,1.6-.2,2,1.1.6,2.1,1.8,3.7,3.9,4.8,1.7.9,3.4,1.7,5.2,2.2,1.8.5,3.8.5,5.8.6,3.5.1,6.7-.7,9.6-2.5,1.5-.9,3.2-1.7,3.6-3.7,2.6-2.5,1.1-5.7,1.4-8.6,0-.5-.5-1-.7-1.6-.5-1.6-1.8-2.8-3-3.8-1.3-1.1-2.9-2-4.6-2.7-.9-.4-1.9-.7-2.8-1.2-1.6-.9-3.4-1.3-5-2-1.2-.5-2.4-.8-3.6-1.5-2.4-1.3-4.8-2.8-6.6-4.9-1.3-1.5-2.2-3.4-2.8-5.4-.9-3.3-.6-6.6.6-9.8.6-1.8,1.8-3.2,2.9-4.7.8-1.1,2.2-1.8,3.4-2.7,1-.8,2.2-1.4,3.4-1.8,2.2-.8,4.3-1.6,6.6-1.9,1.7-.2,3.4-.3,5.1-.3,2.3,0,4.5.6,6.8.8.7,0,1.1,1,1.8.8.8,2.3.5,4.6.6,6.9,0,.7-.2,1.3-1,1.3s-.9-.5-1-1.2c-.4-2.2-2.1-3.2-4-3.9-2.9-1.1-5.9-1.4-9-1.1-1.7,0-3.4.7-5,1.6-1.2.6-2.1,1.5-3,2.4-2,2-2.7,4.4-2.6,7.2.2,3,1.4,5.1,3.7,7,2.7,2.1,5.9,3.3,9,4.6,1.7.8,3.5,1.3,5.2,2.1,1.8.8,3.5,1.9,5.3,2.7.7.3,1.6,1,2.2,1.8.9,1,2,1.9,2.6,3.1.8,1.8,2.1,3.4,2,5.6,0,1.6,0,3.2,0,4.8s-.4,2-.7,2.9c-.9,2.5-2.3,4.8-4.1,6.6-1.9,2-4.2,3.6-6.8,4.6-2.3.9-4.7,1.2-7.2,1.7-1.9.3-3.8.5-5.5.2-2.2-.3-4.5-.4-6.7-1-2.2-.4-3.9-1.1-6-1.4Z"/>
    <path class="st17" d="M-1667.5,17.7c-.4-.3-.8-.6-1-1.1-.8-2.1-2.5-3-4.5-3.6-2-.7-4-.9-6-1.2-2.7-.5-5.3,0-8-.3-1.1,0-1.2.6-1.2,1.5v46.2c0,1.3.8,2.2,1.1,3.4.2.7,1.1,1.4,2.2,1.3,1.5,0,3,0,4.4,0,2.2,0,2.5.4,2,2.7h-25.4v-2.7c1.9,0,3.9,0,5.7,0,1.9.2,2.5-1,2.5-2.5V11.5c-1.5,0-2.9,0-4.4,0-3-.2-6,.2-8.9.9-1.8.4-3.6,1.3-5.2,2.5-.4.3-.7.9-.7,1.3-.2,1.4-1,1.3-1.9,1.1-.4-1.2,0-2.2.3-3.2.5-1.6,1.1-3.1,1.5-4.7.2-1.1.8-1.2,1.7-1.2h43.2c1,0,1.3.5,1.7,1.2,1,1.8.7,3.9,1.8,5.7.5.9.2,2-.9,2.6Z"/>
    <path class="st8" d="M-1499.7,231.5c0,.6,0,1.1,0,1.6-.5,1.4-.8,2.8-1,4.3-.2,2.5-1.3,3.9-3.9,4.6-1.4.4-2.6,1.1-4,1.4-1.5.4-3.1.6-4.6,1-2.1.5-4.2.7-6.4,1-1.7.3-3.6.3-5.4-.1-1.5-.4-3-.6-4.5-.9-2.3-.5-4.5-1.4-6.5-2.7-1.4-.9-2.7-2.1-3.9-3.3-1.7-1.6-3-3.7-3.8-5.9-.4-1.3-1.2-2.4-1.4-3.8,0-.8-.5-1.8-.5-2.6,0-2.1-1-4.3-.4-6.4.5-1.8.2-3.6.6-5.4.4-1.4.3-3.1.9-4.4.7-1.6.8-3.3,1.7-4.9.8-1.4,1.4-2.9,2.2-4.4.9-1.8,2.1-3.5,3.5-5,1-1.1,1.8-2.4,3-3.4,1.5-1.3,2.9-2.7,4.6-3.7,2.2-1.4,4.4-2.7,6.8-3.6,2.2-.8,4.5-1.3,6.7-1.9,3.8-1,7.5-.4,11.3-.6.5,0,1,.1,1.5.3,1.5.6,3.1.5,4.6.8,1.1.2,2.1,1,3.2,1s.5.3.5.6c0,2.2.3,4.5-.7,6.6-.2.4-.3.9-.8.7-.4-.1-.8-.3-.9-.9-.7-3.2-3.1-4.4-6-5.3-2.2-.7-4.5-.9-6.7-1-2.1-.1-4.2.1-6.2,1-.8.4-1.8,0-2.7.5-1.9,1-3.9,1.7-5.8,2.9-1.8,1.1-3.5,2.3-4.9,3.8-.9.9-2,1.7-2.6,2.7-1.3,2.2-3.4,4-3.9,6.7,0,.5-.7.7-.8,1.2-.3,1.7-1.2,3.3-1.6,5-1.1,4.4-1.4,9-1.2,13.5,0,.8.2,1.6.3,2.4.5,2.4.9,4.8,2,7,.4.8.8,1.6,1.4,2.3,1.4,1.9,2.9,3.7,4.9,4.9,2.6,1.5,5.3,2.8,8.5,2.6,1,0,2,.3,2.9.1,1.6-.2,3.2,0,4.8-.4,1.3-.3,2.5-.7,3.7-1.2,1.6-.6,3.1-1.4,4.6-2.4,2.2-1.6,4.3-3.2,5-6,.4-.6,1.2-.4,2-.3Z"/>
    <path class="st6" d="M-1403.9,99.2v-2.8h19.9c1.2,0,1.3.5,1.3,1.5s-.2,1.5-1.3,1.4c-.6,0-1.2,0-1.8,0-2.1,0-2.4.3-2.4,2.4v33.6c0,3.2,0,6.5,0,9.7,0,1.8.4,3.5.5,5.3,0,1.6,1.2,2.5,2.9,2.5h4.2c0,0,0,.1.2.1.3.5,0,1,0,1.5,0,.8-.4,1.2-1.2,1.2h-18.9c-.8,0-1.2-.3-1.2-1.2v-1.5c1.1-.3,2.1-.1,3.1-.1,1.9,0,2.4-.5,2.4-2.4v-45.8c0-1.3-.3-2.6-.7-3.9-.3-1-1-1.4-2.1-1.4-1.6,0-3.3,0-5,0Z"/>
    <path class="st4" d="M-1315.8,229.9c-.7,1.1-1.6,2-2,3.3-.3.8-.8,1.6-1.4,2.3-1.4,1.7-2.6,3.5-4.2,5.1s-3.1,3.2-5.3,4c-1.3.5-2.6,1.3-4,1.1-2-.3-3.9-1-5.4-2.7-2.2-2.6-3.1-5.6-3-9,0-1.4,0-2.8,0-4.2-.2-2.4.7-4.6,1.3-6.9.7-2.4,1.9-4.5,3-6.7,1-1.9,2.5-3.5,3.9-5,1.3-1.4,2.7-2.6,4.1-3.9.8-.7,1.8-1.3,2.8-1.7,2.2-.9,4.4-2,6.8-2.4.8-.1,1.6.1,2.4-.1,1.9-.4,3.7.3,5.6,0h.2q1.8.2,2.2-1.5c.2-.8,1.1-1.2,2.3-.8.8.3.3.8.3,1.3,0,1.5-1.1,2.7-1,4.2,0,1.2-.4,2.6-.8,3.7-.6,1.6-.7,3.2-1,4.8-.6,2.7-1,5.5-1.2,8.2-.3,3-.6,6-.4,9,0,1.1,0,2.2-.3,3.4-.3,1.4,0,2.9.5,4.3.3,1,1,1,1.8.6,1.5-.8,3.1-1.4,4.5-2.4.4-.3,1.1-.9,1.6-.1.4.7.3,1.4-.3,1.9-.7.7-1.7,1.1-2.5,1.5-2.1,1.1-4.1,2.4-6.2,3.3-.8.3-1.6.5-2.4,1-.5.3-1,0-1.2-.4-.5-1-1-2-1-3.1,0-3.7.7-7.3.4-10.9-.1-.4-.1-.8-.1-1.2ZM-1312,205.5c-1.9.2-3.4-.1-5-.1-2.9,0-5.2,1.1-7.6,2.5-1.9,1.1-3.5,2.5-4.9,4.2s-2.5,3.6-3.5,5.7c-.2.5,0,1-.3,1.5-1.5,2.4-2,5.1-2.1,7.7-.2,3.5-.8,7.2,1,10.6.9,1.8,2.2,2.9,4.1,2.9,2.7,0,4.7-1.3,6.6-3,1.6-1.4,2.7-3.2,3.9-4.9,1.2-1.9,2.4-3.9,3.1-6.1.2-.7.7-1.2.9-1.9.5-2.2,1.2-4.2,1.7-6.4.5-2.1.8-4.3,1-6.5,0-.6,0-1.2.2-1.7.4-1.4.2-2.9.9-4.5Z"/>
    <path class="st4" d="M-1764.5,200.2c-.9,2.3-1.1,4.8-1.9,7.2-.5,1.5-.5,3.2-.9,4.8-.6,2.2-.5,4.5-1.1,6.7-.3,1.1-.2,2.3-.4,3.4-.6,5.3-.5,10.6-.4,15.9,0,1.4,1,2,2.3,1.3,1.4-.7,2.8-1.5,4.2-2.3.7-.4,1.1-.3,1.5.4.5.8,0,1-.6,1.4-2.1,1.6-4.5,2.8-6.8,4.1-1.1.7-2.3,1.2-3.6,1.3-.4,0-.7.4-1.2.4-.8-1.4-1.7-2.7-1.5-4.4,0-1,0-2,0-3,0-1.7.4-3.4.7-5.1.2-1.2,0-2.4,0-3.7h-.4c-.5,1.9-2,3.3-2.7,5.1-.3.8-.8,1.6-1.4,2.3-1.2,1.5-2.5,3-3.8,4.4-1,1-2.2,1.9-3.3,2.7-.8.6-1.8,1-2.9,1.2-.8.1-1.5,0-2.3.3-.7.3-1.4-.2-2-.4-1.9-.7-3.7-1.7-4.4-3.9-.3-.9-1.1-1.5-1.3-2.6-.3-2.4-1.3-4.8-1-7.3.6-5.5,1.8-10.9,4.8-15.5,2.7-4.2,6-7.8,10.5-10.1,2.2-1.1,4.5-1.5,6.6-2.6.3-.1.6-.1.9,0,2.8.2,5.6-.4,8.3.4.6.2.9-.3,1-.9.5-1.6,1.3-2.1,3.1-1.5ZM-1771,204.7c-1,.2-1.8-.4-2.7-.4-3.3-.1-6.2,1-9,2.6-1.9,1.1-3.5,2.5-4.9,4.2-1.9,2.3-3.4,4.9-4.4,7.8-1,3-2.1,6-1.8,9.3.3,2.8-.5,5.6.8,8.3.7,1.5,1.6,2.8,3.3,3.2,2.6.6,7.1-1.4,8.4-3.6,1.2-2,2.7-3.8,4-5.8,1.4-2.2,2.4-4.7,3.1-7.1.7-2.3,1.8-4.6,1.9-7.1,0-1.6.7-3.2.7-4.9s.2-1,.2-1.5c0-1.7.8-3.2.4-5Z"/>
    <path class="st6" d="M-1358.4,11.5c0-.2-.2-.2-.2-.3q-.3-2.5,2.2-2.5h17.3c1.7,0,1.9.3,1.8,2,0,.6-.3.8-.9.8-1,0-2.1,0-3.1,0-1.1,0-1.4.6-1.5,1.5,0,.4,0,.8,0,1.2v44.6c0,1.3.5,2.5.5,3.9s.9,1.5,1.9,1.5h4.3c1.2,0,1,1,1.1,1.6,0,.5-.2,1.3-1.1,1.3h-20.1c0,0-.2,0-.2,0-.5-2.1,0-2.7,2-2.7h1.7c1.4,0,1.9-.6,2-1.9V19.5c0-2.2-.4-4.4-.8-6.6,0-.8-.8-1.2-1.7-1.2-1.8-.2-3.6-.2-5.2-.2Z"/>
    <path class="st13" d="M-1433.3,218.8c.9-1.7,1.7-3.4,2.6-5.1.9-1.7,2.1-3.1,3.3-4.6,1.2-1.5,2.5-2.9,4-4.2.9-.7,1.9-1.1,2.8-1.7,1.2-.8,2.7-1,4.3-.9.9,0,1.6.3,2.3.8,1.5,1.2,2.5,2.4,2.7,4.5.2,1.4.5,2.8.3,4.1-.4,2.1,0,4.2-.4,6.3-.5,2.6-.8,5.2-1.2,7.9-.3,2.1-.4,4.1-.8,6.2-.3,1.8-.2,3.5-.3,5.3,0,.6,0,1.2.4,1.7.4.7.8.9,1.6.5,1.4-.7,2.9-1.5,4.3-2.3,1.6-.9,1.6-.8,2.3.9-1.1,1.1-2.5,1.9-3.9,2.6-2.3,1.2-4.3,2.7-6.8,3.4-2.1.7-3.3,0-3.4-2.2,0-2.3-.2-4.6.6-6.8.4-1,.3-2.1.4-3.1.2-2.2.7-4.4.9-6.6.3-3.3,1-6.6,1.2-9.9,0-1.2.4-2.5.3-3.8,0-1.5-.3-3-1.6-4.1-.7-.6-3.2-.8-3.9-.2-.4.3-.8.6-1.2.7-1.4.6-2.2,1.8-3.1,2.8-.5.6-1.3,1-1.8,1.7-1.6,2.3-3.3,4.7-4.5,7.3-.9,2.1-2.2,4.2-2.5,6.4-.3,2.5-1.7,4.8-1.4,7.5,0,1.4-.7,2.8-.9,4.3,0,.4-.3.8-.2,1.3.2,1.2-.2,2.4-.5,3.5-.5,1.6-2.1.6-3.2.8-.7.1-1.4,0-1.4-.9s-.3-1.9.2-2.8c.2-.3,0-.7,0-1.1,0-1.6.5-3.1.7-4.6.2-1.3.3-2.6.4-3.9,0-1.7.5-3.2.7-4.9.2-1.2.5-2.4.5-3.6s.4-2.5.7-3.7c.3-1.2,0-2.5,0-3.7s.4-2.2.6-3.3c.3-1.6.5-3.1-.2-4.7-.3-.7-.6-.9-1.4-.4-1.4.8-3.1,1.2-4.4,2.2-.6.4-.9.1-1.2-.3-.2-.4,0-.7.3-1.2,1.2-1.2,2.7-1.7,4.1-2.5s3.1-1.2,4.7-1.7c.2-.1.4-.2.7-.2.9-.3,1.8-.3,2.6-.1,1.2.3.5,1.4.5,2.1.3,2.4-.3,4.7-.5,7.1,0,2.3-.6,4.6-.8,6.9-.4.2-.4.5-.2.9.4,0,.4-.5.5-.6Z"/>
    <path class="st17" d="M-1282.7,178.7c.2,2.5.2,4.7-.7,6.9,0,.1,0,.2,0,.3.2,1.8-.4,3.6-.5,5.4,0,2-.6,4-1,6-.2.9-.3,1.8-.4,2.7,0,2.5-1.1,4.9-.9,7.4,0,.5-.2.8-.4,1.2-.4,1-.3,2.2-.4,3.3-.3,2-.3,4.1-1.1,6,0,.1,0,.2,0,.3.2,1.4-.4,2.8-.4,4.2,0,1.9-.2,3.7-.8,5.5v.2c0,3.5-.7,7-.4,10.5,0,.9.5,1.6,1.2,2.1,1.8-.6,3.4-1.8,5.1-2.6,1.5-.7,1.7-.6,2.3,1-2.2,1.4-4.4,2.9-6.7,4.1-1.7.9-3.6,1.6-5.4,2.3-.7.3-1.7-.3-1.7-1.5s-.7-2.5-.5-3.7c.5-2.1.2-4.3.4-6.4.3-2.4.5-4.8.8-7.2.4-2.6.7-5.3,1-7.9.3-2.5,1.1-5,1-7.6,0-1.8,0-3.8.9-5.5,0-.1,0-.3,0-.5-.2-1.8.6-3.4.4-5.2,0-.9.3-1.9.5-2.9,0-.3.2-.6.2-.9,0-2.6.7-5.1.9-7.7,0-1.5.2-3.1.3-4.6,0-1.5-1-2.1-2.4-1.4-1.4.7-2.9.8-4.4,1.3-.5.2-1.1,0-1.4-.6-.3-.8.3-1,.8-1.2,1.9-.8,4-1.5,5.9-2.2,2.9-1,5.3-1.2,7.9-1.1Z"/>
    <path class="st17" d="M-1476.7,178.4c-.2,1.8.4,3.6-.4,5.3,0,.1,0,.3,0,.5,0,2.7-.5,5.4-.9,8.1-.2,1.7-.2,3.6-1.1,5.3,0,.1,0,.3,0,.5.3,1.8-.3,3.5-.5,5.3-.2,1.6-.5,3.2-1,4.8-.2.5,0,1.1,0,1.7,0,1.3-.3,2.6-.7,3.8-.3,1-.3,2.1-.4,3.1-.2,1.6-.4,3.1-.6,4.7-.2,1.5,0,3.1-.7,4.5,0,.1,0,.2,0,.4.2,2.2-.5,4.3-.4,6.5,0,1.3-.4,2.5-.4,3.9s0,1.9.5,2.8c.2.6.6,1.1,1.5.8,1.8-.5,3.2-1.7,4.8-2.5.9-.4,1.2,0,1.7.5.6.6,0,.9-.4,1.3-1,1-2.4,1.5-3.6,2.2-2.3,1.4-4.8,2.7-7.4,3.6-.7.2-1.7-.3-1.9-1-.6-2.3-.6-4.7-.3-7.1,0-1,.4-2.1.2-3.1-.3-2.4.2-4.7.5-7,.5-3.3.9-6.5,1.2-9.8.2-1.7.5-3.5,1-5.3.3-1.1.3-2.3.4-3.5,0-1.5.4-3,.6-4.4.3-1.9,0-3.9,1-5.7,0-.1,0-.3,0-.5-.3-2,.6-3.9.4-5.9,0-.6.3-1,.4-1.5.5-1.9.6-3.8.4-5.8,0-.6.2-1.1,0-1.7-.2-.7-.9-1-1.3-.8-.5.2-1.2.1-1.6.4-1.2.7-2.6.7-3.8,1.3-.6.3-1,0-1.1-.4-.2-.5-.4-1,.3-1.4,1.4-.8,2.9-1.2,4.3-1.8,2.6-1,5.2-1.6,8-1.7.6-.5.9-.5,1.4-.4Z"/>
    <path class="st4" d="M-1738.7,235.5c.3-2.4-.7-4.1-2.3-5.7-2.6-2.7-5.7-4.8-8.4-7.3-2-1.9-4-4.1-4.6-7-.5-2.6,0-5.1,1.5-7.4,1.3-2,3.4-3,5.3-4.3,2.1-1.5,4.5-1.3,6.7-2.1,1.2-.4,2.5.3,3.7.5,1.5.1,2.7,1.1,3.9,1.9,1,.7.7,1.8.5,2.6-.2.7-1,1.2-1.9,1.3-2.6.3-4.2-1.3-5.5-3.1-.9-1.2-1.9-.9-2.8-.7-1.6.3-3,1.1-4.4,1.9-2,1.2-3.2,5.3-2.2,7.4.9,1.8,2.3,3.2,3.9,4.5,2.2,1.8,4.5,3.4,6.4,5.5.6.7,1.4,1.3,2,1.9,1.3,1.3,2.2,2.9,2.8,4.6.6,1.8,1,3.7.4,5.8-.4,1.4-.9,2.7-1.8,3.8-1,1.1-2,2.4-3.4,3.1-2,1-4,1.6-6.2,2.1-3.5.8-6.6-.4-9.7-1.4-1.5-.5-2.6-1.8-3.1-3.4-.4-1.2.7-2.3,1.9-2.4,2.3-.2,4.1.8,5,2.8,1.2,2.6,3.2,2.5,5.4,2.3,1.9-.2,3.7-.7,5.1-2.1,1.3-1.7,2.2-3.2,1.8-5.1Z"/>
    <path class="st4" d="M-1376.4,230.9c.2-2.7.6-5.5,1.4-8.3.6-2.1,1.6-4.2,2.3-6.2.6-1.7,1.7-3.3,2.9-4.7,1.2-1.3,2.2-2.7,3.5-3.9,2.6-2.3,5.5-4.1,8.9-5,2.7-.7,5.3-.7,7.9.5.8.4,1.7.8,2.1,1.8.4,1.1,0,1.6-.8,2.2-1.1.7-2.2.4-3.4.2-1.6-.3-2.7-1.3-3.9-2.3-.7-.6-1.6-.5-2.2-.2-1.6.8-3.3,1.4-4.7,2.5-1.9,1.7-3.4,3.7-4.7,5.9-1.6,2.6-2.2,5.6-3,8.4-.3,1.2-.7,2.5-.5,3.8.2,1.2-.6,2.3-.4,3.5.5,3.1.2,6.4,2,9.2,1.1,1.7,2.5,3,4.6,3.5,2.2.6,4-.1,5.9-.6,3-.8,5.3-2.8,7.7-4.6.3-.3.6-.6,1-.2.4.4.5.8.3,1.3-.7,1.4-1.8,2.4-3,3.3-1,.7-2,1.4-3,2-1.6.9-3.3,1.6-5.1,1.9-1.7.3-3.3,1.1-5,.8-3.4-.6-6.6-1.5-8.6-4.9-1.1-1.9-1.7-3.9-2.1-6,0-1.3,0-2.6-.1-3.9Z"/>
    <path class="st4" d="M-1675.8,235.4c.2.6.6.9,1,1.3-1.7,2.6-4.1,4.2-6.6,5.8-1.9,1.2-4,1.6-6.2,2-1.2.2-2.4.4-3.6.3-3.5-.2-6.5-1.3-8.5-4.6-1.4-2.3-2.1-4.7-2.2-7.3v-4.8c0-2.8.9-5.5,1.7-8.1.8-2.4,2.1-4.5,3.2-6.7.6-1.3,1.5-2.4,2.4-3.5,1.3-1.5,2.6-3,4.3-4.2,1.5-1.1,3.2-1.8,4.8-2.7,1.4-.8,3-.7,4.4-1,1.7-.4,3.4,0,5.1.4,2.1.4,3.2,2.6,2.2,4.3,0,.2-.2.5-.5.5-1.6-.1-3.2.4-4.7-.8-.6-.6-1.5-.9-2.1-1.5-1.3-1.2-2.6-.2-3.7.2-1.9.7-3.5,2-4.8,3.5-1.5,1.7-2.6,3.7-3.6,5.7-.9,1.8-1.2,3.9-2.1,5.7-.5.9,0,2.1-.5,3.2-.7,2.3-.6,4.8-.4,7.2.2,2.6.4,5.2,1.8,7.6,1,1.8,4.4,3.7,6.6,3.5,2.4-.2,4.7-.7,6.8-2,1.3-.8,2.8-1.4,3.7-2.7.2-.6,1-.6,1.5-1.3Z"/>
    <path class="st4" d="M-1459.2,240c2,.2,3.5-.9,5-1.9.7-.5,1.5-1,2.4-.5.7.4.8,1,0,1.5-.8.7-1.8,1.1-2.7,1.7-2.1,1.3-4.3,2.3-6.4,3.5-.8.4-1.7.6-2.6.8-.8.2-1.6-.6-1.6-1.4,0-1.2-.7-2.3-.5-3.5.5-2.8.4-5.6.9-8.3.4-2.1.5-4.3.8-6.4.3-2.2.5-4.5,1-6.7.3-1.5.6-3.1.5-4.7,0-1.9-.2-3.9.4-5.8.2-.9-.5-1.6-.5-2.4-.3,0-.6-.1-.8,0-1.4.9-3.2,1.2-4.5,2.3-.6.6-1.2.5-1.6-.2-.4-.6,0-1.1.5-1.5,2.1-1.3,4.2-2.5,6.5-3.3,1.6-.6,3.3-1.3,5.1-1.1,1,.1,1.4.6,1,1.6-.4.9-.5,1.9-.5,2.7,0,1.5-.3,3-.5,4.5-.4,2.5-.5,5-1,7.4-.3,1.3-.6,2.8-.5,4.2,0,1.9-.3,3.7-.5,5.5-.2,2.8-.5,5.6-.7,8.4,0,1.4,0,2.5.7,3.6Z"/>
    <path class="st13" d="M-1387.2,202.4c-.6,1.9-.4,3.7-.8,5.5-.2,1-.4,2-.4,2.9,0,2.9-.7,5.6-1,8.4-.2,2.6-.5,5.3-1,7.9-.3,1.5-.6,3-.5,4.6,0,2.2,0,4.5,0,6.8s.7,2.1,2.3,1.4c1.5-.7,2.9-1.5,4.3-2.4.6-.4,1-.4,1.4.4.3.6.5,1-.3,1.5-2.8,2-5.8,3.5-8.8,5-.6.3-1.3.6-2,.8-.9.3-1.7-.2-1.9-1-.3-.7-.5-1.5-.5-2.3-.2-2.8,0-5.6.5-8.3.3-2.2.2-4.4,1.1-6.5v-.4c-.3-2.3.2-4.5.5-6.7.3-2.1.4-4.2,1-6.2,0-.2,0-.4,0-.6,0-1.8-.2-3.7.4-5.5.2-.7-.6-1-.9-1.4-.4-.5-.7-.1-1.1,0-1.4.7-2.8,1.4-4.2,2.1-.4.2-.9.4-1.2,0-.3-.4-.2-1,0-1.5.5-.7,1.2-1.1,1.9-1.4,2.6-1.3,5.2-2.4,8-3.2.9-.2,1.9-.1,3.1,0Z"/>
    <path class="st4" d="M-1725.9,208.2c-.5-1.4.4-2.2,1.2-2.6,2.1-1,4.2-2.3,6.5-3,1.3-.4,2.7-.6,4-.9.9-.3,1.5.9,1.1,1.8-.2.5-.2.9-.3,1.4-.3,1.9-.3,3.9-.7,5.8-.2.9-.3,2-.3,2.9,0,1.6-.4,3.2-.6,4.8-.2,1.4,0,3-.6,4.4-.2.5,0,1.2,0,1.8,0,1.3-.3,2.4-.7,3.6,0,.2,0,.3,0,.5,0,3.2-.7,6.4-.4,9.6,0,1.2,1.1,1.8,2.3,1.4,1.7-.5,3-1.7,4.6-2.4.8-.3,1.1-.4,1.6.5s-.2,1-.6,1.3c-.9.7-1.9,1.3-2.8,1.9-2.6,1.5-5.2,3-8,3.9-.8.3-1.4-.4-1.6-.9-.2-.7-.6-1.4-.6-2.3,0-1.4-.2-2.8,0-4.2.3-1.5,0-3.1.7-4.6,0-.1,0-.3,0-.5-.3-2,.2-4,.5-5.9.3-2.5.3-5.1,1-7.5.3-1,.2-2.2.3-3.3.2-1.4.7-2.8.5-4.2-.2-1.3.6-2.4.4-3.6,0-.3,0-.7,0-.9-.5-1.5-1.7-1.7-3.2-.6-1,.8-2.3,1-3.2,1.9-.3,0-.7,0-1,0Z"/>
    <path class="st5" d="M-1102.8,116.9v4.7c0,0-.2,0-.3.2-1.3,2.1-3.3,2-5.3,1.8-1.1,0-1.8-.9-2.3-1.7-1.8-3.1-.6-5.6,2.2-6.9,1-.5,2.5-.6,3.7.4.7.6,1.6.7,2,1.5Z"/>
    <path class="st17" d="M-1102.8,150.8v3.9c-1.7,2.9-4.7,3-7.2,1.5-.9-.5-1-1.6-1.3-2.4-1-2.8,1.7-5.3,3.7-5.4,2.1-.2,3.8.4,4.8,2.4Z"/>
    <path class="st4" d="M-1461.4,190.9c0-2.2,2.3-4.7,4.3-4.7s2.9,2.3,2.4,3.7c-.6,1.5-1.3,3-2.9,3.8-1.6.9-3.6-.3-3.8-2.2,0-.2,0-.4,0-.6Z"/>
    <path class="st15" d="M-1386.2,189.3c.3,1.7-1.6,4.2-3.4,4.7-1,.3-2.5-.3-2.9-1.3-1-2.2.9-5.8,3.2-6.2,1.8-.3,3.5,1,3.1,2.8Z"/>
    <path class="st8" d="M-1714,186.2c1.6,0,2.1.5,2.2,2.3,0,2.2-1.8,4.7-3.9,5.2-1.5.3-3.4-2-2.8-3.5s1.1-3.2,3-3.7c.5-.2,1-.3,1.5-.3Z"/>
    <path class="st20" d="M-1833.7,211.8c2.5,0,4.8-.1,7.2.6,1.8.6,3.8.7,5.5,1.7,2.9,1.6,5.2,3.8,6.3,6.9.7,2.1,1.3,4.3.9,6.6-.8,4.9-3.5,9-9.1,11-4.2,1.5-8.5,1-12.7,1.1-1.1,0-1.3-1-1.3-1.8,0-2.6.3-5.2.7-7.9.2-1.4.4-2.7.4-4.1,0-1.5.3-3,.8-4.5,0-.2,0-.4,0-.6-.3-1.9.4-3.7.4-5.6-.1-1.1.5-2.1.8-3.4Z"/>
    <path class="st20" d="M-1833.4,209c-.3-1.6.2-3,.5-4.3.2-1.2.4-2.5.5-3.7.2-2.5.9-4.9,1-7.4,0-1.8.5-3.6.8-5.4,0-.7.7-1.2,1.6-1.2,2.9.1,5.7-.1,8.6.7,2,.5,4,1.1,5.5,2.5,1.1,1.1,2.1,2.5,2.3,4.1,0,1,.5,2,.5,3-.2,4.8-2.2,8.6-6.2,11.5-1.2.9-2.2,1.6-3.7,1.4-2-.3-4-.7-6-1.1-1.3-.2-2.6-.1-3.8-.1h-1.6Z"/>
    <path class="st12" d="M-1814.9,40.8h-17.8c3.3-7.9,6.4-15.6,9.6-23.3h.3c2.8,7.6,5.1,15.5,7.9,23.3Z"/>
    <path class="st11" d="M-1625.1,65.3c-2.3.4-4.6-.6-6.9-1.3-1.6-.5-3.1-1.1-4.2-2-2.7-1.9-5.4-4-7-7-.8-1.6-1.5-3.2-2.6-4.6-.4-.5-.2-1-.3-1.5-.3-1.5-.9-3-1.2-4.5-.5-2.3-.5-4.7-1-7.1-.3-1.4-.4-3,.2-4.5.2-.4,0-1,0-1.5,0-1.2.6-2.3.6-3.4,0-1.9,1-3.5,1.4-5.3.2-.8.7-1.6,1.1-2.3,1-1.7,1.9-3.3,3.2-4.8,1.2-1.3,2.7-2.2,4.2-3.2,2.4-1.6,5.1-2,8-2.5,2.1-.4,4.1,0,6.1.2,2.7.2,5.2,1.4,7.4,2.9,1.4.9,2.8,1.8,3.9,3.1,1.3,1.5,2.6,3,3.7,4.6,1,1.5,1.6,3.4,2.3,5.1,1,2.4,1.1,4.8,1.5,7.3.5,2.5.9,5.1.7,7.6-.2,2.2-.2,4.4-1,6.5-.4.9,0,2-.4,3-1.1,2.7-2,5.4-3.9,7.7-.6.7-1.2,1.4-1.8,2.1-2.7,3-6.4,4.2-10.1,5.4-1.3.3-2.5,0-4,0Z"/>
    <path class="st20" d="M-1634.1,125.4c-.3-.4-.2-.8-.2-1.2v-22.9c0-1.3.3-1.7,1.7-1.7,2,0,4,0,6,0,4.7.3,8.3,2.6,10.8,6.7,1.7,2.8,2.2,5.8,1.8,8.9-.2,1.9-.8,3.8-2.2,5.4-2.1,2.5-4.9,3.8-7.8,4.3-3.2.7-6.7,1-10.1.5Z"/>
    <path class="st11" d="M-1581.5,124.2v-2.9c0-2.9.6-5.7,1.4-8.5.9-2.9,2-5.5,3.8-7.9,1.3-1.8,3-3.3,4.9-4.5,2.2-1.3,4.5-2,7-2.5,1.7-.3,3.3-.3,5-.3,1.5,0,2.9.4,4.4.8,2,.5,3.9,1.5,5.7,2.7,1.7,1.2,3.1,2.5,4.5,4,1.1,1.2,2,2.6,2.9,3.9.9,1.4,1.4,3,2.2,4.5,1,2.2.8,4.7,1.9,6.8,0,.3,0,.6,0,.9,0,3.6,0,7.1,0,10.7,0,1.8-.4,3.4-.9,5.1-.5,1.8-1.1,3.6-1.8,5.3-.7,1.5-1.5,2.9-2.5,4.2-1.5,1.9-3.3,3.7-5.5,4.7-1.6.7-3.2,1.7-5.1,2-1.4.2-2.8.2-4.2.5-1.4.3-3-.1-4.4-.3-2.5-.3-4.8-1.4-7-2.7-2.7-1.7-5.2-3.6-6.8-6.4-.6-1-1.4-1.9-2-2.9-.9-1.4-1.1-3.1-1.8-4.5-.5-1.1-.5-2.5-.9-3.7-.7-2.5-.9-5.1-.8-7.7,0-.5,0-.9,0-1.3Z"/>
    <path class="st11" d="M-1504.3,36.2v-3.5c0-1.9.7-3.7,1-5.6.4-1.8,1-3.5,1.6-5.2.6-1.6,1.4-2.9,2.4-4.2.7-.9,1.4-1.9,2.3-2.7,2.4-2.3,5.3-3.7,8.4-4.5,2.3-.6,4.7-.7,7.1-.4,2.1.2,4.1,1,6.1,1.6,2.1.7,3.6,2.4,5.6,3.3.5.2.7.8,1.1,1.3,2.4,2.3,4.3,5.1,5.6,8.2,1,2.3,1.5,4.7,2.1,7.1.8,3.3.9,6.7.7,10,0,2.4-.3,4.9-1,7.3-.3,1.2-1.1,2.3-1,3.6,0,.6-.6,1.2-.9,1.8-1,2.1-2.3,4.1-3.9,5.8-1.1,1.1-2.4,2.1-4,2.9-1.7.8-3.5,1.6-5.3,2.3-.4.2-.8.2-1.3.2-1.9,0-3.8,0-5.6,0-1.7,0-3.2-.7-4.8-1.1-1.7-.5-3.2-1.4-4.7-2.2-2.1-1.3-3.9-3-5.3-5-1.2-1.7-2.4-3.4-3.3-5.3-.8-1.9-1.5-3.8-1.9-5.9-.3-1.5-.7-2.9-1-4.4s0-3.1,0-4.7c.1-.3.1-.5.1-.7Z"/>
    <path class="st7" d="M-1624.1,203.7c1.5-.7,3.2-1,4.8-1.2,1.2-.1,2.6.3,3.6,1.4.5.6.5,1.2,0,1.8-1.2,1.3-2.7,1.3-4.1.8-1.5-.5-3.2-1.3-4.2-2.8Z"/>
    <path class="st20" d="M-1312,205.5c-.7,1.7-.5,3.1-.8,4.5,0,.6-.2,1.2-.2,1.7-.3,2.2-.6,4.3-1,6.5-.5,2.2-1.2,4.3-1.7,6.4-.2.7-.7,1.2-.9,1.9-.7,2.2-1.8,4.2-3.1,6.1-1.1,1.7-2.3,3.5-3.9,4.9-1.9,1.7-3.9,3-6.6,3s-3.2-1.1-4.1-2.9c-1.7-3.4-1.2-7.1-1-10.6,0-2.6.6-5.4,2.1-7.7.3-.5,0-1,.3-1.5,1-2,2.1-4,3.5-5.7,1.4-1.6,3-3.1,4.9-4.2,2.3-1.4,4.7-2.5,7.6-2.5s3,.3,4.9.1Z"/>
    <path class="st20" d="M-1771,204.7c.4,1.8-.4,3.3-.5,4.9,0,.4-.3,1-.2,1.5,0,1.7-.6,3.3-.7,4.9,0,2.6-1.2,4.8-1.9,7.1-.7,2.4-1.7,4.9-3.1,7.1-1.3,2-2.7,3.8-4,5.8-1.4,2.2-5.8,4.2-8.4,3.6-1.6-.4-2.5-1.7-3.3-3.2-1.3-2.7-.5-5.6-.8-8.3-.3-3.3.8-6.2,1.8-9.3.9-2.9,2.5-5.5,4.4-7.8,1.3-1.6,3-3.1,4.9-4.2,2.8-1.6,5.7-2.7,9-2.6,1,.1,1.8.7,2.8.5Z"/>
    <path class="st11" d="M-1433.3,218.8c-.2.2,0,.5-.5.6-.2-.4-.2-.6.2-.9.2,0,.3.2.3.3Z"/>
  </g>
  <g id="Group_4">
    <g id="Group_3">
      <g id="Rectangle_2">
        <rect class="st18" x="-.9" y="0" width="178" height="75"/>
        <rect class="st1" x="-.4" y=".5" width="177" height="74"/>
      </g>
    </g>
    <g id="Group_2">
      <g class="st19">
        <g id="Group_1">
          <path id="Path_3" class="st9" d="M11.2,59.3c.2,0,.5,0,.7,0,.3,0,.5,0,.5-.5s.1-.8.1-1.2.2-.9.2-1.3c0-.3,0-.7.1-1,.1-.4.1-.7.2-1.1.1-.3.2-.5.2-.8,0-.4,0-.7,0-1.1,0-.3,0-.5,0-.8,0-.2.1-.4,0-.6,0-.4.2-.7,0-1.1,0-.2,0-.3,0-.4,0-.4,0-.7,0-1.1,0-.3,0-.3-.3-.3h-.8c-.3,0-.4,0-.3-.4q0,0,.1-.2h4.8c.4,0,.8,0,1.2.2.4,0,.8.3,1.1.6.2.2.4.5.5.8,0,.2.1.4.1.6,0,.4.1.8-.1,1.1-.2.6-.6,1.1-1.1,1.5-.2.2-.5.4-.7.6-.2,0-.4.2-.5.4,0,.2.4.3.6.5.6.4,1.1,1,1.3,1.7.1.4.2.8.1,1.2,0,.3-.1.6-.3.9,0,.3-.2.5-.3.8-.2.2-.4.4-.7.6-.3.2-.7.4-1.1.5-.3.1-.7.2-1,.2-1.7.2-3.4,0-5.2,0v-.4ZM15,59.1c.4,0,.7,0,1.1,0,.6,0,1.1-.3,1.6-.7.4-.4.7-.9.8-1.5,0-.5,0-1.1,0-1.6-.2-.7-.7-1.2-1.4-1.5-.3,0-.7-.2-1-.3-.5,0-.9-.1-1.4,0,0,0-.2,0-.2,0-.1.2-.2.4-.2.6,0,.4,0,.8,0,1.2h0c0,.4,0,.7-.2,1.1,0,.3,0,.5,0,.8-.1.6-.2,1.1-.2,1.7,0,.2.1.4.3.4,0,0,0,0,0,0,.3,0,.7-.1,1,0M14.5,52.6h1.1c.4,0,.8,0,1.2.2.3,0,.6,0,.8-.3.8-.4,1.4-1.3,1.4-2.2,0-.2,0-.4,0-.6,0-.6-.4-1-.9-1.3-.4-.2-.9-.4-1.4-.4-.4,0-.8,0-1.2,0-.1,0-.3,0-.3.2,0,0,0,0,0,0,0,.4,0,.7-.2,1.1,0,.5-.2,1-.2,1.5s0,.5,0,.8,0,.6,0,.9"/>
          <path id="Path_4" class="st9" d="M11.2,22.3c.3-.1.6,0,.8-.3.2-.1.2-.3.3-.5.1-.4.3-.7.5-1h0c.1-.6.3-1,.5-1.4,0-.3.2-.7.4-1,.2-.3.4-.6.5-1,0-.3.2-.5.3-.8.1-.3.2-.7.4-1,0-.2.2-.4.3-.6.2-.5.4-.9.6-1.4,0-.3.3-.5.3-.8,0-.2,0-.4.2-.6.2-.4.4-.8.5-1.2q.2-.3.4-.3c0,0,.2-.1.3-.1h.7c0,.2,0,.3,0,.4-.3.2-.2.5,0,.7,0,.5.2.9.4,1.4.2.4.3.8.4,1.2.2.5.3.9.5,1.4h0c.2.6.4,1.2.6,1.8.2.3.3.7.4,1.1l.3.9c.2.3.4.7.5,1.1.1.3.3.7.4,1,.1.4.4.7.7.9.2.1.4,0,.6,0h.1v.5h-4.1c0-.1,0-.3,0-.5h.8c.5,0,.5-.2.3-.5l-.3-.9c0-.2,0-.3-.2-.4-.1-.5-.3-1-.5-1.5,0-.1,0-.1,0-.2,0-.3,0-.4-.3-.4h-4.2c-.2.4-.3.9-.5,1.3,0,.4-.3.8-.4,1.2,0,.2,0,.4-.2.6v.5c0,.1,0,.3.2.3,0,0,0,0,0,0,.4.1.8,0,1.3.1h0q0,.5-.4.5h-3.3c0-.1.1-.3.1-.5M18.4,17.5c-.6-1.6-1.1-3.3-1.7-4.9h0c-.6,1.7-1.3,3.3-2,4.9h3.8Z"/>
          <path id="Path_5" class="st9" d="M100.2,22.4c0,.2,0,.4,0,.5h-3.4c0-.2,0-.3,0-.5.4,0,.7.1,1-.2,0-.3.1-.7,0-1v-8.5c0-.4-.1-.9-.4-1.2-.1-.1-.3-.2-.5-.2-.2,0-.5-.2-.7-.1,0-.2,0-.3,0-.5h3.1c1.5,3.2,3.1,6.3,4.6,9.5l.3-.6.6-1.2c0-.3.3-.6.4-.9,0-.2,0-.3.2-.4.2-.4.4-.7.5-1.1.1-.2.2-.5.3-.7,0-.3.3-.5.4-.8,0-.2.2-.5.3-.7.2-.5.5-.9.7-1.4.1-.4.3-.8.5-1.1,0-.1,0-.3.2-.4,0-.2.2-.3.4-.3h2.4v.6h-1c0,0-.1.2,0,.3v10.1c0,.3.2.7.6.7,0,0,0,0,.1,0h.9c0,.2,0,.4,0,.5,0,.1-.2,0-.3,0h-3.7q-.4,0-.3-.4h0c0-.1.8-.1.8-.1.1,0,.3,0,.3-.2,0,0,0,0,0,0v-9.2c0,0,0,0,0,0-.2.4-.4.8-.5,1.2l-.3.6c-.2.6-.5,1.2-.8,1.7-.2.4-.3.8-.5,1.2s-.4.9-.6,1.3c-.3.8-.6,1.6-1,2.3-.2.4-.2.8-.5,1.1,0,.1,0,.2,0,.4,0,.1-.2.3-.4.3s-.2-.2-.3-.3,0-.3-.2-.4h0c-.2-.5-.4-.9-.6-1.3-.2-.5-.4-.9-.6-1.4-.2-.4-.4-.7-.6-1.1,0-.3-.3-.5-.4-.8s-.3-.5-.4-.8c0-.3-.2-.5-.4-.7,0,0,0-.2,0-.3-.3-.7-.6-1.4-1-2,0-.3-.2-.5-.3-.8,0,0,0,0,0,.2v8.3c0,.2.2.3.2.5h0c0,.4.2.5.5.5h1Z"/>
          <path id="Path_6" class="st9" d="M59.1,35.5h0c.4.6.8,1.1,1.2,1.7.4.6.9,1.2,1.3,1.8,0,.2.3.3.4.5.2.3.4.6.7.8.3.3.7.4,1.1.4v.5c0,.1-.2,0-.3,0h-1.6c-.5,0-.8-.1-1-.5-.2-.3-.4-.5-.6-.8-.3-.3-.5-.7-.7-1.1-.4-.5-.7-1.1-1.1-1.6-.3-.4-.5-.8-.7-1.2-.2-.3-.3-.5-.7-.4h-.9c0,0,0,.1,0,.2v4c0,.5,0,.9.8.8h.5c0,0,.2,0,.3.2s0,.4-.2.4h-4c-.1,0-.3,0-.3-.2,0,0,0,0,0,0v-.3h.6c.4,0,.6-.1.6-.6v-9.6c0-.3,0-.5-.2-.8,0-.2-.2-.3-.5-.3h-1c0-.2,0-.4,0-.5,0,0,.2-.1.3-.1h5.5c.3,0,.5.2.8.2.5.1.9.3,1.3.5.3.2.6.5.8.9.2.2.3.5.4.7,0,.2,0,.3,0,.5,0,.4,0,.9,0,1.3,0,.3-.2.5-.3.8-.3.4-.7.8-1.1,1.1-.2.2-.5.2-.7.3-.2.4-.4.6-.6.5M56.1,35.2c.8,0,1.6,0,2.4-.2.5-.2.9-.4,1.3-.8.3-.3.4-.7.5-1.1.1-.8,0-1.6-.5-2.2-.5-.7-1.3-1.1-2.1-1.2h-1.3c-.3,0-.3.1-.3.4v5.1"/>
          <path id="Path_7" class="st9" d="M76.3,30.3c0,.3.2.3.3.5.4.5.7,1.2.9,1.8,0,.4.2.7.3,1.1.1.6.2,1.3,0,1.9,0,.2,0,.5,0,.7,0,.2,0,.4,0,.6,0,.4-.2.8-.4,1.1,0,.3-.3.5-.4.8-.1.3-.3.5-.5.7-.5.7-1.2,1.2-2,1.6-.6.3-1.2.5-1.8.6-.3,0-.6.1-.9.1-.5,0-1,0-1.5-.1-.2-.1-.4,0-.6-.1-.4,0-.8-.2-1.2-.4l-.9-.6c-.4-.3-.7-.6-1-.9-.3-.4-.5-.8-.7-1.3l-.3-.9c-.2-.7-.2-1.5-.2-2.2,0-.3,0-.5,0-.8,0-.2,0-.4,0-.7,0-.4.2-.8.4-1.2.2-.4.4-.7.6-1.1,0-.1.2-.3.3-.4.3-.4.6-.8,1.1-1,.2-.2.5-.4.8-.5l.6-.3c.3-.2.7-.3,1.1-.4.3,0,.6-.1.9-.1h.8c.5,0,1,0,1.5.2.2.3.6.1.8.3.2.2.5.3.8.4.3.1.6.3.8.6h.3M76.2,34.7c0-.2,0-.4,0-.6-.2-.5-.2-1-.4-1.4-.1-.3-.3-.6-.5-.9-.2-.3-.4-.6-.6-.8-.3-.3-.6-.6-1-.8-.3-.2-.7-.4-1.1-.5-.3-.1-.6-.2-.9-.2-.4,0-.7,0-1.1.1-.4,0-.9.2-1.3.4-.7.4-1.2.9-1.6,1.6-.2.4-.4.8-.5,1.2-.1.4-.2.9-.2,1.3,0,.7,0,1.3,0,2,0,.3,0,.5,0,.8,0,.3,0,.5.2.8,0,.3.2.6.4.9.2.3.4.6.7.9.3.4.7.8,1.2,1,.4.2.8.4,1.3.5.3,0,.7.1,1,.1.3,0,.6-.1.9-.1.4,0,.8-.2,1.1-.4.5-.2.9-.6,1.2-1,.2-.3.4-.6.5-.9.1-.3.2-.6.3-.9,0-.2.2-.5.2-.8,0-.5,0-1,0-1.6.1-.2.1-.5,0-.7"/>
          <path id="Path_8" class="st9" d="M87.5,23.3c-.4,0-.9,0-1.3-.1,0,0-.1,0-.2-.1-.5-.1-1-.3-1.5-.6-.4-.2-.8-.5-1.1-.9-.3-.3-.6-.6-.8-1-.3-.4-.6-.8-.7-1.3,0-.2-.1-.3,0-.5-.2-.8-.2-1.5-.2-2.3,0-.4,0-.9.2-1.3,0-.4.2-.8.4-1.2.2-.3.3-.6.5-.9.4-.5.9-1.1,1.4-1.5l.9-.6c.4-.1.7-.4,1.1-.4s.4-.2.6-.2h0c.5,0,1-.1,1.5-.1.6,0,1.1.2,1.7.3.4.1.8.3,1.2.5.4.2.7.5,1,.8,0,.1.3.2.5.4.3.4.6.8.8,1.2.3.5.4,1,.5,1.6.2.7.2,1.5,0,2.2,0,.4,0,.7-.2,1.1,0,.5-.4,1-.5,1.4-.1.3-.3.6-.5.8-.2.3-.5.6-.7.9-.3.3-.6.5-.9.7-.3.2-.7.3-1,.5-.3.1-.7.2-1,.3-.6.2-1.2.3-1.8.3M83.2,16.6v1.1c.1.3.2.6.2.9,0,.4.2.7.3,1.1.2.5.5.9.8,1.3.3.4.7.8,1.1,1,.3.2.6.4,1,.5.3.2.7.2,1,.2h.8c.6,0,1.1-.2,1.6-.5h0c.2,0,.3,0,.4-.2.3-.3.6-.6.8-.9.2-.2.3-.4.4-.7.1-.3.2-.5.3-.8.1-.3.2-.5.2-.8,0-.7.1-1.5,0-2.2h0c0-.5,0-.9-.2-1.3,0-.3,0-.6-.3-.8-.2-.5-.4-.9-.7-1.3-.2-.2-.3-.4-.5-.6s-.3-.4-.5-.4,0-.1-.2-.1c-.2-.2-.5-.3-.7-.4,0-.3-.2-.4-.4-.5-.3-.1-.6-.1-.8-.2-.5,0-1,0-1.5.1-.6.2-1.2.5-1.7.9-.2.2-.4.4-.5.6-.2.2-.4.5-.5.8-.2.4-.3.8-.4,1.2,0,.5-.2.9-.2,1.3v.7Z"/>
          <path id="Path_9" class="st9" d="M57.4,10.4h1.4c.4,0,.8,0,1.2.2.4,0,.7.2,1,.4.2.2.5.3.7.5,0,.1.3.1.4.2.5.5,1,1,1.3,1.7.2.5.4,1,.5,1.5.2.6.2,1.1.2,1.7,0,.5,0,1-.2,1.5,0,.3,0,.6-.2.9-.2.5-.4,1-.7,1.5-.2.3-.5.6-.7.9,0,.2-.4.3-.6.5-.3.3-.7.4-1,.7,0,.1-.3.1-.5.2-.4.2-.8.4-1.2.4-.5,0-.9.1-1.4.1-.6,0-1.3-.1-1.9-.3-.4-.1-.7-.3-1.1-.4-.2,0-.4-.2-.6-.4-.4-.3-.8-.7-1.1-1.1-.3-.4-.6-.8-.8-1.3,0-.4-.3-.7-.4-1.1,0-.2-.1-.5,0-.7v-1.7c0-.4,0-.9.2-1.3.2-.5.4-1,.6-1.5.2-.4.4-.7.7-1l.7-.7c.3-.3.7-.6,1.1-.8.3-.2.6-.3.9-.4.2,0,.4,0,.6-.2.3,0,.7,0,1,0M58.1,22.7c.3,0,.6,0,.9-.1.7-.2,1.4-.6,2-1.1,0-.1.2-.3.3-.4.4-.5.6-1,.8-1.6,0-.2,0-.5,0-.6.1-.4.2-.8.2-1.2,0-.5,0-1.1,0-1.6,0-.4,0-.9-.2-1.3,0-.2-.2-.3-.2-.4-.1-.4-.3-.8-.5-1.1-.2-.3-.5-.6-.8-.9-.4-.5-1-.9-1.6-1.1-.5-.1-1-.2-1.5-.3-.2,0-.3.1-.5.1-.4,0-.8.1-1.2.3-.6.3-1.1.7-1.5,1.2,0,.2-.3.4-.5.7-.1.1-.2.2-.2.4-.1.4-.2.7-.3,1.1,0,.3,0,.5,0,.8v.2c-.1.3-.1.7,0,1,0,.5,0,1,.2,1.5.1.3.2.5.2.8,0,.1,0,.3,0,.3.2.3.4.6.5.9.3.6.8,1,1.3,1.4,0,.1,0,.2.2.2.3.1.6.3.9.4.5.2,1,.4,1.5.4"/>
          <path id="Path_10" class="st9" d="M70.3,23h-3.5c0-.1,0-.3,0-.4,0-.1,0-.2.2-.2h.5c.3,0,.4-.1.4-.4v-9.3c0-.4-.1-.8-.4-1-.2-.3-.5-.5-.9-.4-.2,0-.3-.1-.2-.3q0-.1,0-.2h2.6c.2,0,.4.2.5.4.2.3.4.4.6.7.4.6.9,1,1.2,1.5l.6.6c0,.3.2.5.5.8.2.3.5.6.7.9.3.4.7.8,1,1.2.3.3.5.7.8,1,.4.4.8.9,1.1,1.4.2.3.5.6.8.9,0-.1,0-.1,0-.2v-7.8c0-.3-.1-.6-.4-.8q0-.1,0-.1h-.9c0-.1,0-.2,0-.3,0-.2,0-.3.2-.3h3.1c.2.2,0,.4,0,.6h-.6c-.2,0-.4.1-.4.3,0,.2,0,.3,0,.5v11c-.2.1-.2,0-.3-.1-.2-.2-.4-.3-.5-.5l-.3-.3c-.4-.4-.7-.9-1.1-1.3-.3-.2-.5-.5-.6-.8l-1.2-1.5c-.2-.3-.5-.6-.7-.9-.3-.4-.6-.8-.9-1.1-.2-.3-.5-.5-.7-.8-.3-.5-.7-.9-1.1-1.3-.4-.4-.7-.9-1.1-1.3-.2-.2-.3-.4-.5-.5,0,0,0,0,0,.2v8.4c0,.3.2.7.3,1,0,.1,0,.1.2.1h.8q.3,0,.3.3v.3Z"/>
          <path id="Path_11" class="st9" d="M15.5,41.3h-3.5v-.6h.7c.3,0,.5-.1.5-.5v-9c0-.5,0-.9-.3-1.3-.2-.2-.4-.3-.7-.4h-.6v-.5h2.8c0,.3.4.5.6.7.3.3.5.7.8,1,.2.3.4.6.6.8.2.4.5.8.8,1.1l.6.6c.2.2.4.5.6.7.1.2.2.4.4.5.2.3.5.5.7.8.2.2.4.4.5.6.4.5.9,1.1,1.3,1.6,0,.2.3.4.5.5.1,0,.1.2.2.3,0,.1.1.1.2.1q.1-.1.1-.2v-7.4c0-.2-.1-.4-.1-.6v-.2c0-.3-.2-.6-.6-.6,0,0,0,0,0,0h-.8c-.1-.2,0-.3,0-.5h3.4v.4c-.1.1-.3,0-.4,0-.5,0-.7.2-.7.7v10.9c0,.1,0,.2-.1.3-.3-.1-.4-.4-.6-.6-.3-.3-.5-.6-.7-.9-.2-.3-.4-.6-.7-.8-.4-.3-.5-.8-.9-1.1-.5.2-.7-.1-.9-.4-.2-.2-.3-.4-.5-.6-.2-.2-.4-.4-.5-.7-.2-.3-.5-.5-.7-.8-.4-.5-.9-1-1.3-1.6-.2-.2-.4-.4-.5-.6-.3-.4-.5-.7-.8-1.1-.3-.3-.5-.7-.8-1,0,0,0,0,0,.1h0v8.6c0,.3.1.6.3.9,0,.1.2.2.3.2h1c0,.2,0,.4,0,.6"/>
          <path id="Path_12" class="st9" d="M134.1,38.8v-7.9c0-.3,0-.6-.2-.8,0-.3-.5-.3-.8-.4h-.6v-.4h3.5v.5h-.7c-.3,0-.5.2-.5.4,0,0,0,0,0,0v11.3c-.1,0-.2,0-.3-.1-.2-.3-.5-.6-.8-.9-.3-.3-.5-.6-.8-.9-.2-.2-.4-.5-.6-.8-.2-.3-.5-.5-.7-.8-.3-.5-.8-.9-1.1-1.4,0-.2-.3-.3-.4-.4-.4-.4-.8-.8-1.1-1.3-.4-.4-.8-.8-1.1-1.3-.1-.2-.3-.4-.5-.6-.3-.4-.7-.8-1-1.2-.2-.3-.4-.5-.7-.7q0,.1,0,.2v8.6c0,.3.1.6.4.8,0,0,.1,0,.2.1.3,0,.5,0,.8,0,.1,0,.2,0,.2.2v.4h-3.4c0-.1,0-.2,0-.3,0-.2,0-.2.2-.2h.4c.3,0,.5-.2.5-.4,0,0,0,0,0,0v-9.2c0-.4,0-.7-.3-1-.2-.3-.5-.5-.9-.5h-.4c-.2,0-.2-.1-.2-.3s0-.2.2-.2h2.6c0,0,.2,0,.2.1.3.4.5.7.8,1.1l1.2,1.5c.2.2.4.4.5.7l.9,1.2c.1.2.2.4.4.5.4.5.8,1,1.2,1.4.3.3.5.7.8,1l1.2,1.5c.4,0,.7.3,1,.5"/>
          <path id="Path_13" class="st9" d="M152.3,29.7v-.5h9.6c-.1.6,0,1.3-.4,1.8-.1-.1-.2-.1-.2-.2,0-.3-.3-.5-.6-.6-.5-.1-1-.2-1.5-.2-1.1-.1-2.1-.2-3.2-.1-.3,0-.5.2-.5.4,0,0,0,0,0,0v3.9c0,.1,0,.3.2.3,0,0,0,0,0,0h3.6c.4,0,.7-.2.9-.5v-.8c.4-.1.5,0,.5.3v2.9h-.5v-.6c0-.4-.1-.5-.5-.5-.9,0-1.8-.1-2.8-.1h-1.5c0,0,0,.1-.1.2v4.1c0,.4,0,.8.2,1.1.1.2.2.3.4.3,1,0,2.1.1,3.1,0,.6,0,1.2,0,1.7-.3.4-.1.7-.3,1-.5.1,0,.1-.1.1-.2s.1-.1.2-.1.1.1.2.2c0,.2,0,.4-.2.6-.1.4-.2.7-.3,1.1h-8.8c-.1,0-.2.1-.3-.1v-.5c0-.1.1,0,.2,0h.7c.1,0,.3,0,.3-.2,0,0,0,0,0,0v-10c0-.2-.1-.3-.1-.5s-.1-.2-.3-.2c-.3-.4-.8-.3-1.2-.5"/>
          <path id="Path_14" class="st9" d="M111.3,29.7v-.4c0-.1,0-.2.2-.2h9.4c0,.2,0,.4,0,.6s0,.2,0,.3c0,.2,0,.5,0,.7s0,.1,0,.1c0,0-.1,0-.2-.1,0-.5-.4-.6-.7-.7-.6-.2-1.3-.3-1.9-.3h-2.8c-.3,0-.4.1-.4.4v3.9c0,.1,0,.3.2.3,0,0,0,0,0,0h3c.4,0,.8,0,1.2-.2.2,0,.3-.3.3-.5v-.8h.5v3.2h0q-.3,0-.3-.3c0-.2,0-.4,0-.5,0-.2-.2-.3-.4-.3h-4.4c0,0-.1.2,0,.3v4.3c0,.3.1.6.3.9h0c.3.1.5.3.8.2,0,0,.2.1.3,0,.8,0,1.7-.1,2.5-.1.5,0,1-.1,1.5-.3.4,0,.7-.3.9-.6,0-.1,0-.2.2-.3.3.1.3.3.2.4,0,.2-.1.3,0,.5l-.3.9c0,0-.1,0-.2.1h-8.6c-.3,0-.3-.1-.3-.4s.2-.2.3-.2h.5c.3,0,.4-.1.4-.4v-10.2c0-.3-.3-.5-.6-.5-.3.2-.7.2-1.1.2"/>
          <path id="Path_15" class="st9" d="M36.3,39.4c.1,0,.2.2.2.4-.1.4-.2.7-.3,1.1-.1.3-.2.4-.5.4h-8.7v-.3c0-.1,0-.3.2-.3,0,0,0,0,0,0h.7c.1,0,.2-.1.3-.2,0-.2.1-.4.1-.6v-8.8c0-.3,0-.5-.1-.8-.1-.1,0-.3-.1-.4-.1-.2-.4-.4-.6-.3s-.5,0-.7,0-.1-.3-.1-.4h9.5c0,.4,0,.7-.1,1.1-.1.2,0,.5-.3.6-.1-.3-.2-.6-.6-.7-.3-.1-.5-.2-.8-.2-.3,0-.6-.1-1-.1h-2.9c-.4,0-.5.1-.5.5v4.1c.1.1.2,0,.3,0h2.2c.5,0,1.1-.1,1.6-.1s.8-.2.8-.9v-.4c.1-.1.3,0,.4,0v3.2h-.4v-.5c0-.3-.2-.5-.4-.5,0,0,0,0,0,0-1.4-.2-2.7-.2-4.1-.2-.2,0-.2.1-.2.2v4.5c0,.2,0,.5.2.7,0,.2.3.3.5.3h2.1c.5,0,1-.1,1.5-.1.5,0,.9-.2,1.4-.3-.2-.3.2-.7.4-1"/>
          <path id="Path_16" class="st9" d="M67.2,51.9c.2,0,.4,0,.6,0,.2.2.3.4.4.7,0,.2,0,.4,0,.6,0,.3,0,.5,0,.8-.1.5-.5,1-.9,1.3-.4.4-.9.6-1.5.6-.3,0-.7,0-1,0-.2,0-.2.2-.2.3-.1.5-.3,1-.6,1.5-.2.4-.6.8-1,1.1-.4.3-.8.6-1.2.8-.4.2-.9.3-1.3.4-.8.1-1.5.2-2.3,0-.5,0-1-.1-1.5-.3-.4-.2-.9-.5-1.2-.8-.6-.5-.9-1.2-1.1-1.9-.1-.5-.2-1.1,0-1.6,0-.5.2-1,.4-1.5.1-.3.3-.6.5-.8.2-.3.5-.6.8-.8.2-.2.4-.3.6-.4.3-.2.7-.3.9-.6-.4-.6-.5-1.3-.3-2,0-.3.3-.6.5-.9.2-.3.5-.5.8-.7.3-.2.6-.4.9-.4.3,0,.6-.2.9-.2h1.1c.4,0,.7.2,1.1.3.4,0,.4.3.3.6,0,.1-.1.3,0,.4,0,.2,0,.4,0,.6,0,0-.2,0-.2,0,0-.2,0-.3-.3-.4-.7-.4-1.5-.5-2.2-.3-.4.2-.7.4-1,.6-.2.2-.3.5-.5.7,0,.1-.1.3,0,.4-.2.5-.1,1,0,1.4.6-.2,1.3-.3,2-.2.5,0,.9.4.9.9h0c0,.3-.3.5-.6.6-.5,0-1,0-1.5,0-.3,0-.6-.2-.8-.5,0,0-.2-.2-.2-.3-.5.1-.9.4-1.2.8-.4.4-.7.9-.9,1.4-.2.5-.2,1.1-.2,1.6,0,.3,0,.6,0,.9.1.5.4,1,.7,1.4.2.2.3.4.5.6.4.3.8.6,1.3.7.6.2,1.2.3,1.8.2.4,0,.9,0,1.3-.2.5-.1.9-.3,1.3-.6.4-.3.7-.6,1-1,.3-.5.5-1,.6-1.6,0-.4-.3-.4-.5-.5-.3-.2-.7-.3-1-.5-.3-.2-.7-.3-1.1-.4h-.6c-.2,0-.3,0-.4.3-.2.2-.4.5-.5.8,0,.2-.2.2-.3.2-.2,0,0,0,0-.2,0-.5.3-1,.7-1.3.4-.3.8-.5,1.2-.6.6,0,1.3,0,1.9.3.6.3,1.3.6,2,.7.5.2,1.2.2,1.7,0,.5-.2.9-.7.8-1.3,0-.2-.2-.2-.3-.3-.2,0-.2-.3-.3-.5-.7-.4-.7-.7-.5-1M58.2,51.5c.1.1.2.2.4.3.3.2.6.4,1,.3.2,0,.5-.2.5-.4,0-.3,0-.3-.4-.4-.1,0-.2,0-.3,0h0c-.4.1-.7.2-1.1.3"/>
          <path id="Path_17" class="st9" d="M38.2,29.1h4.3v.6h-.8c-.1,0-.3,0-.3.2,0,0,0,0,0,0v1.3c0,.3,0,.6-.1.9,0,.2,0,.5.1.7h0c0,.6-.1,1-.1,1.5,0,1,0,1.9,0,2.9,0,.5,0,1,.2,1.4,0,.3.2.6.4.9.7.9,1.8,1.4,2.9,1.4.4,0,.9,0,1.3-.2.4-.1.8-.3,1.2-.5l.6-.6c.2-.2.4-.5.5-.7,0-.1,0-.3,0-.5.1-.2.2-.5.2-.7.2-2.4,0-4.8,0-7.2,0-.3-.2-.7-.4-.9q0-.1-.2-.1h-.9c0-.2,0-.4,0-.5h3.4v.5h-.7c-.3,0-.5.2-.5.4,0,0,0,0,0,0v7.2c0,.4,0,.8-.2,1.2,0,.1,0,.2,0,.3-.2.7-.6,1.3-1.2,1.8-.6.5-1.3.8-2.1,1-.6.1-1.2.2-1.8.1-.7,0-1.4-.2-2.1-.5-.4-.2-.7-.4-1-.7-.2-.2-.3-.4-.4-.6-.2-.2-.3-.4-.4-.7,0-.2-.1-.3-.1-.5,0-.2-.1-.4-.1-.6s-.1-.3-.1-.4v-6.9c0-.4,0-.8-.3-1.1q-.1-.1-.2-.1h-.7c-.5,0-.6-.1-.5-.5"/>
          <path id="Path_18" class="st9" d="M24.4,11.2v-.5h4.3v.4c-.2.1-.5,0-.7,0-.3,0-.5.2-.5.4,0,0,0,0,0,0v6.9c0,.3,0,.5.1.8h0c0,.7.3,1.3.7,1.8.3.3.6.5,1,.7.5.3,1.1.4,1.7.4.6,0,1.2-.2,1.8-.4.6-.3,1.1-.7,1.4-1.3.2-.4.3-.8.4-1.2,0-.3.1-.7.1-1,.1-1.9.2-3.7.1-5.6,0-.4,0-.9-.2-1.3,0-.3-.4-.5-.7-.5h-.8v-.5h3.1q.4,0,.4.5h-.5c-.2,0-.4,0-.6.2,0,0-.1.2-.1.3v7.2c0,.4,0,.8-.2,1.2,0,.5-.3,1-.7,1.4l-.9.9c-.2.2-.4.3-.7.4-.2.1-.5.2-.7.2-.3,0-.5,0-.8.2h-1.9c-.3,0-.6,0-.8-.2-.2,0-.5-.1-.7-.2-.4-.1-.7-.3-1-.6-.2-.2-.5-.4-.6-.7-.2-.3-.3-.6-.4-.9-.1-.3-.2-.6-.2-.9-.2-2.3,0-4.6-.1-6.9,0-.4-.1-.7-.1-1.1,0-.3-.3-.5-.6-.5,0,.3-.3.3-.6.3"/>
          <path id="Path_19" class="st9" d="M101.2,31c0-.4-.2-.8-.6-1-.3-.2-.7-.3-1-.4-.6-.2-1.3-.2-1.9-.2-.6,0-1.1.1-1.6.4-.3.1-.7.3-1,.5-.5.3-1,.8-1.3,1.3-.2.3-.4.7-.6,1-.2.5-.3.9-.4,1.4-.1.6-.2,1.2-.2,1.8,0,.3,0,.7,0,1l.3,1.2c0,.3.2.5.4.7.2.3.4.6.7.9.6.5,1.3.9,2,1.2.8.2,1.7.3,2.5.2.5,0,.9-.2,1.3-.4.4-.1.9-.4,1.2-.7.2-.2.3-.4.3-.7,0-.1,0-.2,0-.2,0-.1,0-.2.2-.1.1,0,.2,0,.2.2,0,.3,0,.6,0,.9s0,.5,0,.7-.3.2-.5.3c-.5.2-1,.3-1.4.5-.2.1-.3,0-.5,0s-.5.1-.7.1c-.6,0-1.2.1-1.8.1-.4,0-.7,0-1.1-.1-.2-.1-.4,0-.6-.1-.4,0-.8-.2-1.1-.4-.5-.2-1-.5-1.4-.9l-.8-.8c-.3-.5-.6-1.1-.8-1.7,0-.2-.1-.4,0-.6-.1-.6-.2-1.2,0-1.8,0-.4,0-.9.2-1.3,0-.2.2-.5.3-.7.2-.5.5-1,.8-1.5.2-.3.5-.6.8-.9.3-.2.5-.5.8-.7.4-.3.9-.6,1.4-.8.2-.1.4-.1.5-.2.3-.2.7-.1,1-.3,0-.1.4-.1.5-.1.5,0,1-.1,1.5-.1.6,0,1.2.2,1.8.3.4.1.7.2,1.1.3,0,0,.2.1.2.3,0,.4,0,.9-.2,1.3,0,.2-.2.1-.3.1"/>
          <path id="Path_20" class="st9" d="M150.2,39c0,.3,0,.5-.1.8-.1.2,0,.5,0,.8,0,.2,0,.4-.3.5-.5.2-.9.3-1.4.5-.3.1-.6.1-1,.2-.5.1-1,.1-1.6.2-.4,0-.8,0-1.2-.1h-.1c-.4,0-.7,0-1.1-.2-.4,0-.8-.2-1.2-.4-.2-.1-.5-.2-.7-.4-.4-.2-.6-.6-1-.8-.2-.1-.3-.4-.4-.5-.3-.4-.5-.8-.6-1.3-.1-.3-.1-.6-.2-.8,0-.3-.1-.5-.1-.8v-.8c0-.5,0-1.1.2-1.6.1-.5.3-1,.5-1.4.2-.5.5-.9.9-1.3.4-.4.8-.8,1.2-1.1.4-.2.7-.4,1.1-.7.3-.2.7-.2,1-.4.3,0,.7-.2,1-.3h.1c.6,0,1.1-.1,1.7-.1.4.1.8.1,1.2.2.3.1.7.2,1,.3.2,0,.4.2.6.3,0,.1-.1.2-.1.3.1.4-.1.7-.1,1.1s-.1.2-.3.2c0-.5-.4-.9-.8-1.1-.5-.2-.9-.3-1.4-.4-.4,0-.8-.1-1.2-.1-.5,0-1,.1-1.4.3-.1,0-.3.1-.4.1-.5.2-1,.5-1.4.9-.2.2-.3.4-.5.6-.1.1-.2.2-.3.4-.2.2-.3.5-.4.8-.1.3-.2.5-.3.8s-.1.6-.2.9h0c0,.7-.1,1.3-.1,1.9,0,.5.1.9.3,1.4.2.4.4.8.6,1.3l.3.3c.4.5.9.9,1.4,1.3.4.2.7.4,1.1.5.1,0,.3.1.4.1.7.2,1.5.2,2.2.1.2,0,.5-.1.7-.1h.2c.5-.2,1-.4,1.4-.7.3-.2.5-.6.6-1-.2-.7,0-.7.2-.7"/>
          <path id="Path_21" class="st9" d="M131.8,12.8c-.2,0-.2-.3-.2-.5,0-.2-.2-.4-.4-.5-.4-.3-.9-.5-1.4-.5-.5-.2-1.1-.2-1.6,0-.2.1-.5,0-.7.1-.4,0-.8.2-1.2.4-.4.2-.7.4-1.1.6-.2.2-.4.3-.6.5-.3.4-.6.8-.8,1.2-.2.3-.3.7-.4,1.1,0,.2,0,.4-.2.5v.3c0,.4,0,.8,0,1.2,0,.5,0,1,.2,1.5,0,.2.1.4,0,.6,0,.3.2.6.4.8,0,.1.2.3.3.4.2.2.3.4.5.6.2.2.4.4.7.6.3.2.6.4.9.5h0c.3-.1.4.1.6.2.2,0,.4.1.6.1h1.4c.4,0,.7-.2,1-.2.4-.1.8-.3,1.1-.5.5-.2.8-.7,1-1.2,0-.2,0-.2.2-.2s.2.1.2.3c0,.4,0,.8-.2,1.2,0,.2,0,.4-.2.5-.2.1-.4.2-.6.2-.2,0-.3.2-.5.2-.3,0-.7,0-1,.2-.5.1-.9.2-1.4.2-.5.1-1.1.1-1.6,0h-.2c-.5,0-.9-.2-1.4-.3-.4,0-.8-.2-1.2-.4-.4-.2-.8-.4-1.1-.7-.4-.3-.8-.7-1-1.2-.1-.2-.2-.5-.3-.7-.1-.2-.2-.5-.2-.8,0-.2-.2-.5-.2-.7v-1.5c0-.4,0-.8.2-1.2,0-.4.2-.7.3-1.1.1-.4.3-.7.5-1,.1-.3.3-.5.5-.7,0,0,0-.2.2-.2.4-.3.7-.7,1.1-1,.4-.2.8-.5,1.2-.7.3-.2.7-.3,1.1-.4.4-.1.7-.2,1.1-.2.6,0,1.3-.1,1.9-.1.4,0,.8,0,1.1.2.2,0,.3,0,.5,0,.3,0,.5.3.9.3s0,.1,0,.2c0,.4,0,.8,0,1.2,0,.2,0,.4-.2.5,0,0,0,0,0,0"/>
          <path id="Path_22" class="st9" d="M87.1,29.1c.1.5.2.9,0,1.4,0,.2,0,.3-.2.3s-.2-.1-.2-.3c0-.3-.2-.5-.5-.6-.7-.4-1.6-.5-2.4-.4-.4,0-.7.2-1,.4-.4.2-.7.6-.9,1-.4.9-.2,1.9.6,2.5.6.4,1.3.7,2,1,.3.1.7.3,1,.4.4.2.7.4,1.1.6.2.1.4.2.5.4.2.2.4.4.6.7.2.4.4.8.4,1.2v.9c0,.2,0,.4,0,.6-.2.6-.6,1.2-1.1,1.6-.6.5-1.3.9-2.1,1-.5.1-1,.2-1.5.2-.5,0-1.1,0-1.6-.2l-1.2-.3c-.1-.7-.2-1.3-.2-2,.2,0,.3,0,.4.2.1.4.4.8.8,1,.3.2.7.3,1,.4.2,0,.5.1.7.1h.9c.7,0,1.3-.2,1.8-.6.2,0,.4-.2.5-.4.3-.3.4-.7.5-1.1v-.7c0-.3-.2-.5-.3-.8s-.4-.4-.5-.6c0-.1-.2-.2-.4-.3-.5-.3-1-.5-1.6-.7-.4-.2-.8-.3-1.2-.5-.6-.2-1.1-.6-1.5-1.1-.4-.5-.7-1.1-.7-1.7,0-.4,0-.8,0-1.2,0-.4.3-.8.6-1.1.3-.3.6-.6.9-.8.2-.2.5-.3.8-.4.4-.1.8-.2,1.2-.3.4,0,.9-.1,1.3-.1.4,0,.8,0,1.2.2,0-.1,0,.1.2.1"/>
          <path id="Path_23" class="st9" d="M49.2,12.7c-.2,0-.3-.4-.4-.6-.2-.2-.4-.3-.7-.4-.4-.2-.9-.3-1.3-.3-.6-.1-1.1,0-1.7-.1-.1,0-.3,0-.3.2,0,0,0,0,0,0v9.8c0,.1,0,.2,0,.2q0,.1,0,.2c0,.2.2.4.4.4h1.1q.4,0,.4.4v.2h-5.3v-.5h1.3c.3,0,.4-.1.4-.4v-10.5c-.6,0-1.3,0-1.9.1-.2,0-.4,0-.6.1-.4.1-.8.3-1.2.5l-.3.3c0,.3-.2.3-.4.2,0-.2,0-.5.1-.7.1-.3.2-.7.3-1,0-.2.1-.2.3-.2h9.1c.2,0,.2.1.3.2.1.3.2.6.2.9,0,0,0,.1,0,.2.1.2,0,.5,0,.7"/>
          <path id="Path_24" class="st9" d="M84.9,49.3c0,0-.2,0-.2-.2-.2-.6-.6-1-1.2-1.1-.5-.1-.9-.2-1.4-.2-.4,0-.9,0-1.3.2,0,0-.3,0-.5,0-.4.2-.8.3-1.2.5-.4.2-.8.5-1.1.9l-.6.6c-.3.4-.6.9-.8,1.4,0,.3-.2.7-.4,1-.1.2-.2.5-.2.7,0,.2,0,.3,0,.5,0,.3-.1.6,0,.9v1c0,.3,0,.5,0,.8,0,.2,0,.4,0,.6.2.5.4.9.7,1.3.2.3.6.7.9.9.3.2.7.4,1.1.5.5,0,.9.1,1.4,0,.3,0,.7,0,1,0,.2,0,.5,0,.7-.2.3,0,.6-.2.8-.4.3-.2.6-.4.9-.7.2-.2.3-.4.4-.7q0-.3.4-.2v.3c-.1.3-.2.6-.2.9,0,.5-.3.9-.8.9-.3,0-.5.2-.8.3-.4.1-.7.2-1.1.2-.4,0-.8,0-1.3.2-.4.1-.7.1-1.1,0-.3,0-.6,0-.9-.2-.5-.1-1-.3-1.4-.6-.3-.2-.6-.4-.8-.7-.4-.4-.7-.8-.8-1.3,0-.3-.2-.5-.3-.8,0-.2,0-.3,0-.5,0-.5-.1-.9,0-1.4,0-.5,0-.9.2-1.4,0-.2.1-.5.2-.7.1-.2.1-.5.2-.7.3-.5.5-1,.8-1.5.3-.5.7-1,1.2-1.4.3-.3.6-.5.9-.7.4-.3.9-.5,1.4-.7.4-.2.9-.4,1.4-.4,0,0,.2,0,.3,0,.6,0,1.2-.1,1.8,0,.3,0,.5,0,.8,0,.2,0,.5.1.7,0,.3,0,.5.2.7.2h0c0,.6,0,1.1-.2,1.5,0,.1-.1.2-.2.3"/>
          <path id="Path_25" class="st9" d="M114.1,23c0-.4,0-.6.5-.6h.3c.3,0,.4-.1.4-.4v-8.9c0-.5,0-.9-.2-1.4,0-.1-.2-.2-.3-.2h-1.1v-.5c0-.1.2,0,.3,0h3.6q.5,0,.5.6h-.8c-.1,0-.3,0-.3.2,0,0,0,0,0,0v9.6c0,.3,0,.5,0,.8s.2.3.4.3h.9c.3,0,.2.2.2.3s0,.3-.2.3c-1.4-.2-2.9-.2-4.3-.2"/>
          <path id="Path_26" class="st9" d="M125.3,58.5c.2.2.2.4,0,.6-.5.3-1.1.6-1.6.9-.2,0-.4,0-.6.2,0,0-.2,0-.3,0-.1-.2-.2-.4-.2-.6,0-.8,0-1.6,0-2.4s0,0,0-.2c-.1.2-.2.5-.4.7,0,.2-.2.3-.3.5-.3.3-.5.7-.9,1.1-.3.3-.6.6-1,.8-.3.1-.6.2-.9.3-.5,0-.9-.2-1.2-.6-.4-.5-.6-1.1-.6-1.8v-1c0-.5,0-.9.3-1.3.2-.6.4-1.1.7-1.6.2-.3.5-.6.7-.9.3-.3.6-.6.9-.8.2-.2.4-.3.6-.4.2,0,.3-.2.5-.2.4,0,.7-.2,1.1-.3h1.3c.1,0,.2,0,.3,0,0,0,.3,0,.3-.2q0-.4.6-.4c0,.2,0,.5-.2.7,0,0-.1.2,0,.3,0,.3,0,.7-.2,1,0,.2,0,.3,0,.5s0,.5,0,.7,0,.5,0,.7c0,.4,0,.8,0,1.2,0,.6,0,1.2,0,1.8,0,.2,0,.4,0,.7,0,.2,0,.4,0,.6,0,.2.2.3.4.2.5-.2,1-.5,1.4-.8M123.4,51.9c-.5,0-1.1,0-1.6,0h0c-.3.2-.7.3-1,.5-.4.2-.7.5-1,.9-.3.3-.5.7-.7,1.1,0,0,0,.2,0,.4-.3.5-.4,1-.4,1.6-.1.7,0,1.5.2,2.2.1.4.5.6.9.6.5,0,1-.2,1.4-.6.3-.3.5-.6.7-.9.2-.3.3-.5.5-.8.2-.4.3-.8.5-1.2,0-.3.2-.6.3-1,.1-.6.2-1.2.3-1.8h0c0-.4,0-.7,0-1"/>
          <path id="Path_27" class="st9" d="M104.7,40.9h.6c.4,0,.5-.1.5-.5v-9.6c0-.3,0-.6-.2-.9,0-.2-.2-.2-.4-.2h-1.1v-.6h4.4v.6h-.7c-.2,0-.4.1-.4.3,0,0,0,0,0,0v9.6c0,.3,0,.7.2,1,0,.2.2.3.4.3h1c0,.1,0,.2,0,.4,0,.1,0,.2-.2.2h-4c-.1,0-.2,0-.2-.2,0-.2,0-.3,0-.5"/>
          <path id="Path_28" class="st9" d="M28.9,50.8c-.1.4-.2.9-.3,1.3-.2.5-.1,1-.3,1.4,0,.2-.1.5-.1.7,0,.3,0,.6-.1.9-.1.4,0,.8-.1,1.2-.1,0,0,.3,0,.5v1.8c0,.2,0,.4.1.4.2,0,.4,0,.5,0,.3-.2.5-.3.8-.4.2,0,.2,0,.3.2-.8.6-1.7,1.1-2.6,1.4-.2-.3-.3-.6-.3-1,0-.5,0-.9.1-1.4.1-.3,0-.7.1-1-.1,0-.2,0-.2,0-.1.3-.2.5-.4.8-.1.1-.2.2-.2.4-.1.3-.3.5-.5.7-.3.4-.7.7-1.1,1-.2,0-.3.2-.5.2-.5.1-1,0-1.5-.2-.2-.1-.4-.3-.4-.6,0,0,0,0-.1,0-.2-.2-.2-.5-.3-.7,0-.2-.1-.5-.1-.8s-.1-.5,0-.7c0-.2.1-.4.1-.6,0-.4.2-.8.3-1.2.2-.5.4-1,.7-1.4.2-.4.5-.8.9-1.1.4-.3.9-.6,1.3-.9.2,0,.5-.2.7-.3.6-.2,1.3-.3,2-.2.1,0,.2,0,.3,0,.2,0,.3,0,.3-.2.1-.2.2-.3.6-.2M27.6,51.8h-.3c-.4-.1-.9,0-1.3,0-.3,0-.6.2-.9.4-.3.2-.5.4-.7.6-.2.2-.4.4-.6.7-.1.2-.3.4-.4.6-.1.3-.3.5-.3.8-.1.4-.2.8-.3,1.2-.1.8,0,1.7.1,2.5.2.6.9.9,1.5.7.5-.2.9-.6,1.2-1,.2-.2.4-.4.5-.7.2-.3.4-.6.5-1l.3-.6c0-.4.3-.7.3-1.1v-.4c.1-.3.2-.6.2-.9v-.4c.1-.9.2-1.2.2-1.5"/>
          <path id="Path_29" class="st9" d="M98,54.9l.3-.6c.1-.3.3-.6.5-.9.2-.4.5-.8.8-1.1.3-.3.6-.5.9-.7.2,0,.4-.2.5-.3q0,0,.2,0h.3c.4,0,.9.2,1,.6.3.5.3,1.1.2,1.7v.6c0,.3,0,.6-.2.9,0,.2,0,.5,0,.7,0,.3,0,.6,0,1s0,.6,0,1c0,.4,0,.9,0,1.3,0,.2.2.2.4,0,.3-.1.6-.3.9-.5q.3-.2.5,0c0,0-.2.2-.3.2-.4.2-.7.4-1.1.6-.3.2-.6.4-1,.5-.2,0-.4,0-.5-.3-.2-.5-.1-1.1,0-1.6,0-.2.1-.5,0-.7,0-.5,0-.9.2-1.4,0-.4,0-.8.2-1.2.1-.5.2-1.1.2-1.6,0-.2,0-.5-.2-.7-.2-.3-.6-.4-.9-.2,0,0,0,0,0,0,0,0,0,0,0,0-.3,0-.5.4-.8.7s-.5.6-.8.9c-.3.3-.5.7-.6,1.1,0,.3-.2.6-.4.9,0,.3,0,.6-.2.8-.3.5,0,1-.3,1.5-.1.2-.2.5,0,.8,0,.2,0,.4,0,.6,0,.3-.4,0-.6,0s-.3,0-.3,0v-.5c0-.3.1-.7,0-1,0-.5,0-1,.2-1.5.1-.5.2-1.1.2-1.6,0,0,0-.3,0-.4,0-.3.1-.5,0-.8,0-.3,0-.6,0-.8.1-.3,0-.7,0-1,0,0,0-.2-.3,0-.3.2-.6.2-.9.4,0,0-.2,0-.3,0,0,0,0,0,0,0,0,0,0-.2,0-.2.5-.4,1.1-.7,1.8-.9,0,0,0,0,.2,0,.5,0,.5,0,.5.5s0,1,0,1.5,0,.9,0,1.3c0,0-.2.2,0,.4"/>
          <path id="Path_30" class="st9" d="M128.3,59.3c.3-.2.7-.4,1-.6.3-.2.3,0,.5.2-.4.3-.9.6-1.4.9-.4.2-.8.4-1.2.5-.2,0-.3-.2-.3-.3,0-.3-.2-.6,0-.9,0-.4,0-.8,0-1.2,0-.5,0-1.1.2-1.6,0-.5,0-.9.2-1.4,0-.4,0-.8.2-1.1v-.2c0-.4,0-.9,0-1.3,0-.4,0-.7.2-1.1v-.2c0-.3,0-.7.2-1,0-.2,0-.4,0-.7,0-.3,0-.6,0-.8,0-.4,0-.8,0-1.2s-.2-.5-.5-.3c-.3,0-.6.2-.9.3,0,0-.3,0-.3,0,0-.2,0-.2.2-.2.4,0,.7-.3,1.1-.4.5-.2,1.1-.3,1.7-.3,0,.3,0,.7,0,1,0,.2-.1.4,0,.6,0,.5,0,.9,0,1.4s0,.5,0,.7c0,.4,0,.9-.2,1.3,0,.3,0,.5,0,.8,0,.2,0,.5,0,.7v.2c0,.5,0,.9-.2,1.4-.1.5-.2,1-.2,1.5,0,.2,0,.5,0,.7h0c0,.8,0,1.5,0,2.3,0,0,0,.3,0,.4"/>
          <path id="Path_31" class="st9" d="M89,46.2c0,.4,0,.8,0,1.1h0c0,.7-.2,1.4-.2,2s-.2.9-.2,1.4c0,.4,0,.8-.2,1.2,0,.3-.1.5,0,.8,0,.3,0,.6,0,.9,0,.2,0,.4,0,.6,0,.3-.1.5,0,.8,0,.4,0,.8-.2,1.1,0,.5,0,.9,0,1.4,0,.3,0,.6,0,.9,0,.2,0,.3,0,.5,0,.2.3.2.5,0s.3-.2.5-.3.3-.2.5-.3c0,0,.2,0,.2.2,0,.3-.4.3-.6.5-.4.2-.7.4-1.1.6-.3.1-.5.2-.8.3-.2,0-.3,0-.3-.2,0-.5,0-1,0-1.5,0-.4,0-.8,0-1.2,0-.5,0-1,.2-1.5,0-.4,0-.7,0-1.1s0-.6,0-.9c0-.2.1-.4,0-.6,0-.3,0-.7,0-1,0-.3,0-.5,0-.8,0-.2,0-.5,0-.7,0-.5,0-1.1.2-1.6.1-.4.2-.9.2-1.3v-.5c0-.2-.2-.2-.4-.2-.4,0-.7.2-1.1.3,0,0-.1,0-.2,0,0,0,0-.2,0-.3.3-.2.7-.3,1-.4.4-.1.8-.2,1.2-.3.2,0,.5.1.7,0"/>
          <path id="Path_32" class="st9" d="M34.3,58.1c.1-.4-.2-.8-.5-1.2-.5-.5-1.2-1-1.7-1.5-.4-.3-.6-.7-.8-1.1-.1-.3-.2-.6-.1-.9,0-.6.3-1.2.9-1.5.3-.2.7-.4,1-.6.2,0,.4,0,.6,0,.5-.1,1.1,0,1.6,0,.2,0,.3.2.4.3.2,0,.1.3,0,.5,0,0-.2.2-.4.2-.3,0-.7,0-.9-.3l-.4-.4c-.2-.1-.3-.1-.5,0-.3,0-.6.2-.9.4-.5.4-.7,1-.4,1.6.3.5.7.9,1.2,1.2.2.2.4.4.6.5.3.2.5.5.8.7.3.2.5.6.6.9.3.7.1,1.4-.3,2-.4.4-.9.8-1.5.9-.4.1-.7.2-1.1,0-.6,0-1.1-.2-1.6-.5-.2-.1-.4-.4-.4-.6-.1-.2.1-.5.4-.5.4,0,.9.2,1,.6.2.5.7.5,1.1.5.4,0,.8-.2,1.1-.5.2,0,.2-.2.2-.8"/>
          <path id="Path_33" class="st9" d="M115.5,58.3c.2.2.2.3,0,.5-.3.3-.6.6-1,.8-.3.2-.6.4-1,.4-.4.2-.9.2-1.3.2-.6,0-1.2-.3-1.6-.8-.3-.4-.5-.9-.6-1.4,0-.4,0-.8,0-1.2,0-.5,0-.9.2-1.4.1-.5.3-.9.5-1.3.1-.3.3-.6.5-.9.2-.2.4-.5.5-.7l.5-.5c.2-.2.5-.4.7-.5.3-.2.7-.3,1-.4.4-.1.7-.2,1.1,0,.3,0,.7.2.9.5,0,.2,0,.3,0,.4-.2.1-.5.1-.7,0-.3,0-.6-.2-.8-.5,0,0-.4,0-.5,0-.2,0-.5.2-.7.3-.6.4-1,.9-1.3,1.5-.3.5-.4,1-.5,1.5-.1.4-.2.8-.2,1.2,0,.2,0,.4,0,.7,0,.6.2,1.3.4,1.9.2.3.5.6.9.7.4,0,.9,0,1.3,0,.5-.2.9-.4,1.3-.8.3.3.4.2.6,0"/>
          <path id="Path_34" class="st9" d="M47.5,58.2c0,0,0,.2.2.3-.4.5-.9.9-1.4,1.2-.4.2-.9.3-1.3.4-.4.1-.9.1-1.3,0-.5-.1-.9-.4-1.2-.8-.4-.6-.5-1.2-.5-1.9v-.3c0-.8.2-1.5.5-2.2.2-.4.4-.8.6-1.3.1-.3.3-.5.5-.7l.9-.9c.3-.2.7-.4,1-.6s.6,0,.9-.2c.4,0,.7,0,1.1,0,.4,0,.7.5.4.9,0,0,0,0,0,0-.3,0-.5,0-.8,0-.2,0-.4-.2-.6-.4,0-.2-.4-.2-.6,0-.6.2-1,.5-1.4,1-.2.3-.4.7-.6,1-.2.4-.2.8-.4,1.2,0,.2,0,.4,0,.6,0,.6-.1,1.2,0,1.8,0,.5.2,1,.4,1.4.2.3.5.5.8.6.8.1,1.6,0,2.2-.5.3,0,.5-.5.9-.6"/>
          <path id="Path_35" class="st9" d="M92.7,59.1c.3,0,.6,0,.8-.2l.6-.3c0,0,.2,0,.3,0s0,.2,0,.2c-.4.3-.8.6-1.3.8-.3.2-.7.4-1.1.4-.1,0-.3,0-.3-.2,0,0,0,0,0,0,0-.3-.2-.5,0-.8.2-.4,0-.8,0-1.2,0-.3.1-.5,0-.8,0-.6,0-1.2.2-1.7,0-.4,0-.9.2-1.3,0-.2,0-.4,0-.6,0-.3,0-.5,0-.8,0-.2,0-.4,0-.5h-.2c-.3.1-.6.3-.9.5,0,0-.2,0-.3,0,0,0,0,0,0,0,0,0,0-.2,0-.3.4-.3.8-.5,1.3-.7.3-.2.7-.2,1.1-.2.2,0,.3,0,.2.3-.1.2-.2.4-.2.6,0,.3,0,.7,0,1h0c0,.5,0,.9-.2,1.3,0,.3,0,.5,0,.8s0,.8,0,1.2c0,.6,0,1.1,0,1.7-.1.3,0,.6,0,.8"/>
          <path id="Path_36" class="st9" d="M106.3,52c-.4.2-.8.4-1.3.6,0-.3,0-.6.4-.7h0c.3-.2.6-.3.9-.4.4-.1.7-.2,1.1-.3.3,0,.4,0,.2.4,0,0,0,0,0,.2,0,.4,0,.7-.2,1.1v.2c0,.4,0,.7-.2,1.1h0c0,.5,0,.9,0,1.3,0,.5,0,.9-.2,1.4,0,.3,0,.7,0,1v.9c0,.3.2.4.4.3.3-.2.6-.3.9-.5,0,0,.2,0,.3,0,0,0,0,.2,0,.3-.6.4-1.2.7-1.9,1.1,0,0-.2,0-.4,0-.2,0-.3,0-.4-.2,0-.2-.1-.4,0-.6v-.7c0-.3.1-.7,0-1,0-.3.1-.6,0-.9,0-.6,0-1.2.2-1.8.1-.7.2-1.3.2-2,0-.2,0-.3,0-.5.3-.2,0-.3,0-.4"/>
          <path id="Path_37" class="st9" d="M37,52.5c0-.3.1-.5.4-.6.2,0,.2,0,.4-.2.5-.3,1-.4,1.6-.5.1,0,.1,0,.2,0,.2,0,.3.2.2.4,0,0-.1.2-.1.3,0,.4-.1.8-.1,1.3s-.1.5-.1.8c-.1.4,0,.7-.1,1.1,0,.3-.1.5-.1.8,0,.3,0,.7-.2,1h0c0,.8-.1,1.4-.1,2.1s.2.4.5.3c.3-.1.5-.2.8-.4q.3,0,.5.2c-.3.3-.6.5-1,.6-.2,0-.3.2-.4.3-.3.2-.6.3-.9.4-.2,0-.3,0-.4-.2,0-.2-.1-.3-.1-.5v-.6c0-.4,0-.8.2-1.2h0c0-.5,0-.9.1-1.3.1-.5.1-1,.2-1.5,0-.3.1-.6.1-.9.1-.4,0-.8.1-1.2v-.4c-.1-.4-.4-.4-.7-.2-.2.2-.5.2-.7.4-.2-.2-.3-.2-.3-.2"/>
          <path id="Path_38" class="st9" d="M167.1,40.9c0,.4-.2.8-.7.9,0,0-.1,0-.2,0-.6,0-.9-.3-.9-1,0-.4.3-.8.8-.8,0,0,.1,0,.2,0,.5,0,.8.3.8.9"/>
          <path id="Path_39" class="st9" d="M167.1,34c.1.3-.1.5-.4.8h-.1c-.3.1-.7.2-1-.1-.2-.2-.4-.7-.3-.9.2-.6.6-.7,1.2-.7.4,0,.6.3.6.9"/>
          <path id="Path_40" class="st9" d="M92.2,48.8c0-.4.3-.8.7-.9.2-.1.5,0,.6,0,.2.2.2.5,0,.7-.1.3-.3.5-.6.7-.2,0-.3,0-.5,0-.2,0-.3-.3-.3-.5"/>
          <path id="Path_41" class="st9" d="M106.6,48.9c0-.4.2-.8.7-.9,0,0,.1,0,.2,0,.2,0,.4.2.4.4,0,.5-.2.9-.7,1.1-.3,0-.5,0-.6-.3,0,0,0,0,0,0v-.2"/>
          <path id="Path_42" class="st9" d="M38.5,48.9c.1-.7.4-1,1.1-1s.2.3.3.4c.1.4-.4,1-.8,1.1-.2,0-.6-.3-.6-.5"/>
          <path id="Path_43" class="st9" d="M58.2,51.5c.4-.2.7,0,1.1-.3h0c0,0,.2.1.3,0,.2,0,.4,0,.4.4s-.3.3-.5.4c-.4,0-.7,0-1-.3-.2,0-.3-.2-.4-.3"/>
        </g>
      </g>
    </g>
  </g>
</svg>