<svg width="32" height="32"><g fill="#8300bf" fill-rule="nonzero"><path d="M15.61 30c-7.729-.008-13.992-6.271-14-14 .008-7.729 6.271-13.992 14-14 7.729.008 13.992 6.271 14 14-.008 7.729-6.271 13.992-14 14zm0-26c-6.624.007-11.993 5.376-12 12 .007 6.624 5.376 11.993 12 12 6.624-.007 11.993-5.376 12-12-.007-6.624-5.376-11.993-12-12z"/><path d="M10.894 10.186c1.927 1.447 4 4.38 4.76 5.954.761-1.574 2.834-4.507 4.761-5.954 1.39-1.044 3.643-1.851 3.643.719 0 .513-.294 4.311-.467 4.928-.6 2.144-2.786 2.691-4.73 2.36 3.399.579 4.263 2.495 2.396 4.411-3.547 3.64-5.098-.913-5.495-2.08-.073-.213-.107-.313-.108-.228 0-.085-.034.015-.107.228-.397 1.167-1.948 5.72-5.495 2.08-1.868-1.916-1.003-3.832 2.396-4.411-1.944.331-4.13-.216-4.73-2.36-.173-.617-.467-4.415-.467-4.928 0-2.57 2.252-1.763 3.643-.719z"/></g></svg>